<?xml version="1.0" encoding="UTF-8" standalone="no"?>
<svg
   width="456"
   height="456"
   viewBox="0 0 456 456"
   version="1.1"
   xml:space="preserve"
   style="fill-rule:evenodd;clip-rule:evenodd;stroke-linejoin:round;stroke-miterlimit:2;"
   id="svg4"
   sodipodi:docname="appiconfg.svg"
   inkscape:version="1.3 (0e150ed6c4, 2023-07-21)"
   xmlns:inkscape="http://www.inkscape.org/namespaces/inkscape"
   xmlns:sodipodi="http://sodipodi.sourceforge.net/DTD/sodipodi-0.dtd"
   xmlns:xlink="http://www.w3.org/1999/xlink"
   xmlns="http://www.w3.org/2000/svg"
   xmlns:svg="http://www.w3.org/2000/svg"><defs
   id="defs4"><linearGradient
     xlink:href="#linearGradient1344"
     id="linearGradient1336"
     x1="235.60191"
     y1="764.90649"
     x2="652.84961"
     y2="305.25977"
     gradientUnits="userSpaceOnUse"
     gradientTransform="matrix(0.78123498,0,0,0.78124592,-82.036625,-210.47651)" /><linearGradient
     id="linearGradient1344"><stop
       style="stop-color:#ffd42a;stop-opacity:1"
       offset="0"
       id="stop1338" /><stop
       style="stop-color:#ff2a2a;stop-opacity:1"
       offset="1"
       id="stop1342" /></linearGradient><radialGradient
     xlink:href="#linearGradient1319"
     id="radialGradient1321"
     cx="396.84961"
     cy="561.25977"
     fx="396.84961"
     fy="561.25977"
     r="256"
     gradientUnits="userSpaceOnUse"
     gradientTransform="matrix(0.78123498,0,0,0.78124592,-82.036625,-210.47651)" /><linearGradient
     id="linearGradient1319"><stop
       style="stop-color:#4682b4;stop-opacity:1"
       offset="0"
       id="stop1315" /><stop
       style="stop-color:#4682b4;stop-opacity:0"
       offset="0.34945616"
       id="stop1323" /><stop
       style="stop-color:#000000;stop-opacity:1"
       offset="1"
       id="stop1317" /></linearGradient><linearGradient
     xlink:href="#linearGradient1330"
     id="linearGradient1332"
     x1="314.70901"
     y1="667.92328"
     x2="483.22717"
     y2="400.45816"
     gradientUnits="userSpaceOnUse"
     gradientTransform="matrix(0.78123498,0,0,0.78124592,-82.036625,-210.47651)" /><linearGradient
     id="linearGradient1330"><stop
       style="stop-color:#0055d4;stop-opacity:1"
       offset="0"
       id="stop1326" /><stop
       style="stop-color:#55d400;stop-opacity:1"
       offset="1"
       id="stop1328" /></linearGradient></defs><sodipodi:namedview
   id="namedview4"
   pagecolor="#505050"
   bordercolor="#ffffff"
   borderopacity="1"
   inkscape:showpageshadow="0"
   inkscape:pageopacity="0"
   inkscape:pagecheckerboard="1"
   inkscape:deskcolor="#d1d1d1"
   inkscape:zoom="1.3087678"
   inkscape:cx="165.80481"
   inkscape:cy="274.30381"
   inkscape:window-width="1920"
   inkscape:window-height="1057"
   inkscape:window-x="-8"
   inkscape:window-y="-8"
   inkscape:window-maximized="1"
   inkscape:current-layer="svg4" />&#10;    &#10;    &#10;    &#10;    &#10;<path
   id="path1334"
   style="clip-rule:evenodd;display:inline;opacity:1;fill:url(#linearGradient1336);fill-opacity:1;fill-rule:evenodd;stroke:none;stroke-width:82.0299;stroke-linecap:square;stroke-linejoin:miter;stroke-miterlimit:4;stroke-dasharray:none;stroke-opacity:1;paint-order:normal;stop-color:#000000"
   d="m 28.00005,28.006501 v 164.510269 58.64225 12.33369 a 203.12111,203.12396 0 0 0 0.0987,0.55501 203.12111,203.12396 0 0 0 0.19062,1.04219 203.12111,203.12396 0 0 0 0.19563,1.04063 203.12111,203.12396 0 0 0 0.20124,1.04063 203.12111,203.12396 0 0 0 0.2075,1.03914 203.12111,203.12396 0 0 0 0.21188,1.03756 203.12111,203.12396 0 0 0 0.21812,1.03601 203.12111,203.12396 0 0 0 0.22312,1.03619 203.12111,203.12396 0 0 0 0.22875,1.0345 203.12111,203.12396 0 0 0 0.23375,1.03301 203.12111,203.12396 0 0 0 0.23937,1.03144 203.12111,203.12396 0 0 0 0.24562,1.02995 203.12111,203.12396 0 0 0 0.25,1.02994 203.12111,203.12396 0 0 0 0.255,1.02851 203.12111,203.12396 0 0 0 0.26125,1.02694 203.12111,203.12396 0 0 0 0.26499,1.02537 203.12111,203.12396 0 0 0 0.27188,1.02383 203.12111,203.12396 0 0 0 0.27749,1.02231 203.12111,203.12396 0 0 0 0.2825,1.02076 203.12111,203.12396 0 0 0 0.28625,1.01932 203.12111,203.12396 0 0 0 0.29312,1.01782 203.12111,203.12396 0 0 0 0.29813,1.01619 203.12111,203.12396 0 0 0 0.30374,1.01469 203.12111,203.12396 0 0 0 0.31,1.01476 203.12111,203.12396 0 0 0 0.3125,1.01169 203.12111,203.12396 0 0 0 0.32062,1.00851 203.12111,203.12396 0 0 0 0.32375,1.00869 203.12111,203.12396 0 0 0 0.32937,1.00707 203.12111,203.12396 0 0 0 0.33562,1.0055 203.12111,203.12396 0 0 0 0.34,1.0025 203.12111,203.12396 0 0 0 0.34499,1.00095 203.12111,203.12396 0 0 0 0.35125,0.99944 203.12111,203.12396 0 0 0 0.35562,0.99801 203.12111,203.12396 0 0 0 0.36188,0.99632 203.12111,203.12396 0 0 0 0.36562,0.99331 203.12111,203.12396 0 0 0 0.37249,0.99182 203.12111,203.12396 0 0 0 0.37563,0.99038 203.12111,203.12396 0 0 0 0.38312,0.9887 203.12111,203.12396 0 0 0 0.38624,0.98569 203.12111,203.12396 0 0 0 0.39188,0.98419 203.12111,203.12396 0 0 0 0.39812,0.98276 203.12111,203.12396 0 0 0 0.40187,0.9795 203.12111,203.12396 0 0 0 0.4075,0.97813 203.12111,203.12396 0 0 0 0.41374,0.97501 203.12111,203.12396 0 0 0 0.41625,0.9735 203.12111,203.12396 0 0 0 0.4225,0.97201 203.12111,203.12396 0 0 0 0.42812,0.96894 203.12111,203.12396 0 0 0 0.43187,0.96582 203.12111,203.12396 0 0 0 0.43812,0.96438 203.12111,203.12396 0 0 0 0.4425,0.96288 203.12111,203.12396 0 0 0 0.44874,0.95975 203.12111,203.12396 0 0 0 0.4525,0.9582 203.12111,203.12396 0 0 0 0.45749,0.95519 203.12111,203.12396 0 0 0 0.4625,0.95213 203.12111,203.12396 0 0 0 0.46812,0.9507 203.12111,203.12396 0 0 0 0.47312,0.9475 203.12111,203.12396 0 0 0 0.47812,0.94606 203.12111,203.12396 0 0 0 0.48187,0.94295 203.12111,203.12396 0 0 0 0.48687,0.93994 203.12111,203.12396 0 0 0 0.4925,0.9385 203.12111,203.12396 0 0 0 0.4975,0.93533 203.12111,203.12396 0 0 0 0.50249,0.93231 203.12111,203.12396 0 0 0 0.50625,0.93075 203.12111,203.12396 0 0 0 0.51312,0.92776 203.12111,203.12396 0 0 0 0.51624,0.9247 203.12111,203.12396 0 0 0 0.52187,0.92156 203.12111,203.12396 0 0 0 0.52625,0.91863 203.12111,203.12396 0 0 0 0.53062,0.91701 203.12111,203.12396 0 0 0 0.53562,0.91394 203.12111,203.12396 0 0 0 0.54187,0.911 203.12111,203.12396 0 0 0 0.54437,0.90794 203.12111,203.12396 0 0 0 0.55062,0.90483 203.12111,203.12396 0 0 0 0.55437,0.90337 203.12111,203.12396 0 0 0 0.56,0.89869 203.12111,203.12396 0 0 0 0.56499,0.89713 203.12111,203.12396 0 0 0 0.56875,0.89264 203.12111,203.12396 0 0 0 0.57187,0.89113 203.12111,203.12396 0 0 0 0.57812,0.88813 203.12111,203.12396 0 0 0 0.58249,0.88338 203.12111,203.12396 0 0 0 0.5875,0.88195 203.12111,203.12396 0 0 0 0.59249,0.87894 203.12111,203.12396 0 0 0 0.59625,0.87431 203.12111,203.12396 0 0 0 0.60124,0.87282 203.12111,203.12396 0 0 0 0.60625,0.86976 203.12111,203.12396 0 0 0 0.60999,0.86513 203.12111,203.12396 0 0 0 0.615,0.86369 203.12111,203.12396 0 0 0 0.61811,0.85906 203.12111,203.12396 0 0 0 0.62375,0.85601 203.12111,203.12396 0 0 0 0.62881,0.85301 203.12111,203.12396 0 0 0 0.63199,0.84988 203.12111,203.12396 0 0 0 0.63775,0.84688 203.12111,203.12396 0 0 0 0.64099,0.84219 203.12111,203.12396 0 0 0 0.64581,0.83925 203.12111,203.12396 0 0 0 0.64987,0.8362 203.12111,203.12396 0 0 0 0.65474,0.83313 203.12111,203.12396 0 0 0 0.65887,0.83006 203.12111,203.12396 0 0 0 0.66368,0.8255 203.12111,203.12396 0 0 0 0.66687,0.82245 203.12111,203.12396 0 0 0 0.67181,0.81937 203.12111,203.12396 0 0 0 0.67587,0.81632 203.12111,203.12396 0 0 0 0.68074,0.81176 203.12111,203.12396 0 0 0 0.68556,0.80894 203.12111,203.12396 0 0 0 0.68799,0.80407 203.12111,203.12396 0 0 0 0.69293,0.80081 203.12111,203.12396 0 0 0 0.69694,0.79838 203.12111,203.12396 0 0 0 0.70018,0.79513 203.12111,203.12396 0 0 0 0.70505,0.79025 203.12111,203.12396 0 0 0 0.70912,0.78538 203.12111,203.12396 0 0 0 0.714,0.78295 203.12111,203.12396 0 0 0 0.71724,0.77976 203.12111,203.12396 0 0 0 0.72212,0.77481 203.12111,203.12396 0 0 0 0.72612,0.77244 203.12111,203.12396 0 0 0 0.72943,0.76751 203.12111,203.12396 0 0 0 0.73424,0.76431 203.12111,203.12396 0 0 0 0.73668,0.76025 203.12111,203.12396 0 0 0 0.74162,0.75701 203.12111,203.12396 0 0 0 0.74643,0.75213 203.12111,203.12396 0 0 0 0.74887,0.74888 203.12111,203.12396 0 0 0 0.75375,0.74481 203.12111,203.12396 0 0 0 0.75699,0.73994 203.12111,203.12396 0 0 0 0.76099,0.73676 203.12111,203.12396 0 0 0 0.76431,0.73263 203.12111,203.12396 0 0 0 0.76918,0.72944 203.12111,203.12396 0 0 0 0.77155,0.7245 203.12111,203.12396 0 0 0 0.7765,0.7205 203.12111,203.12396 0 0 0 0.77968,0.71726 203.12111,203.12396 0 0 0 0.78293,0.71238 203.12111,203.12396 0 0 0 0.78862,0.70988 203.12111,203.12396 0 0 0 0.7903,0.7035 203.12111,203.12396 0 0 0 0.79512,0.70019 203.12111,203.12396 0 0 0 0.79837,0.69613 203.12111,203.12396 0 0 0 0.80237,0.69288 203.12111,203.12396 0 0 0 0.80568,0.68807 203.12111,203.12396 0 0 0 0.80893,0.68394 203.12111,203.12396 0 0 0 0.8133,0.67913 203.12111,203.12396 0 0 0 0.81637,0.67425 203.12111,203.12396 0 0 0 0.81937,0.67175 203.12111,203.12396 0 0 0 0.82393,0.66695 203.12111,203.12396 0 0 0 0.82556,0.66206 203.12111,203.12396 0 0 0 0.83155,0.65807 203.12111,203.12396 0 0 0 0.83312,0.65313 203.12111,203.12396 0 0 0 0.83612,0.64988 203.12111,203.12396 0 0 0 0.84074,0.64419 203.12111,203.12396 0 0 0 0.84387,0.641 203.12111,203.12396 0 0 0 0.8468,0.63613 203.12111,203.12396 0 0 0 0.85143,0.632 203.12111,203.12396 0 0 0 0.85293,0.62719 203.12111,203.12396 0 0 0 0.85756,0.6225 203.12111,203.12396 0 0 0 0.85905,0.61813 203.12111,203.12396 0 0 0 0.86356,0.61313 203.12111,203.12396 0 0 0 0.86668,0.61 203.12111,203.12396 0 0 0 0.86987,0.60437 203.12111,203.12396 0 0 0 0.87274,0.59939 203.12111,203.12396 0 0 0 0.8758,0.59626 203.12111,203.12396 0 0 0 0.87893,0.59063 203.12111,203.12396 0 0 0 0.88343,0.58562 203.12111,203.12396 0 0 0 0.88506,0.5825 203.12111,203.12396 0 0 0 0.88799,0.57687 203.12111,203.12396 0 0 0 0.89106,0.57188 203.12111,203.12396 0 0 0 0.89418,0.56813 203.12111,203.12396 0 0 0 0.89724,0.56313 203.12111,203.12396 0 0 0 0.90018,0.55813 203.12111,203.12396 0 0 0 0.9018,0.55437 203.12111,203.12396 0 0 0 0.90637,0.54938 203.12111,203.12396 0 0 0 0.90937,0.54438 203.12111,203.12396 0 0 0 0.91086,0.54063 203.12111,203.12396 0 0 0 0.914,0.53375 203.12111,203.12396 0 0 0 0.91718,0.53063 203.12111,203.12396 0 0 0 0.92005,0.525 203.12111,203.12396 0 0 0 0.92306,0.52001 203.12111,203.12396 0 0 0 0.92467,0.51624 203.12111,203.12396 0 0 0 0.92768,0.51126 203.12111,203.12396 0 0 0 0.93081,0.50563 203.12111,203.12396 0 0 0 0.93387,0.50251 203.12111,203.12396 0 0 0 0.93536,0.49563 203.12111,203.12396 0 0 0 0.93837,0.49188 203.12111,203.12396 0 0 0 0.94149,0.48686 203.12111,203.12396 0 0 0 0.94293,0.48188 203.12111,203.12396 0 0 0 0.94599,0.47626 203.12111,203.12396 0 0 0 0.94912,0.47124 203.12111,203.12396 0 0 0 0.95062,0.46626 203.12111,203.12396 0 0 0 0.95361,0.4625 203.12111,203.12396 0 0 0 0.95524,0.45562 203.12111,203.12396 0 0 0 0.95818,0.45189 203.12111,203.12396 0 0 0 0.95975,0.44688 203.12111,203.12396 0 0 0 0.9628,0.44249 203.12111,203.12396 0 0 0 0.96593,0.43626 203.12111,203.12396 0 0 0 0.96737,0.43187 203.12111,203.12396 0 0 0 0.96893,0.42751 203.12111,203.12396 0 0 0 0.97199,0.42125 203.12111,203.12396 0 0 0 0.97343,0.41625 203.12111,203.12396 0 0 0 0.97655,0.41188 203.12111,203.12396 0 0 0 0.97805,0.40562 203.12111,203.12396 0 0 0 0.98106,0.40188 203.12111,203.12396 0 0 0 0.98118,0.39501 203.12111,203.12396 0 0 0 0.98574,0.39187 203.12111,203.12396 0 0 0 0.98568,0.38626 203.12111,203.12396 0 0 0 0.9888,0.37937 203.12111,203.12396 0 0 0 0.99024,0.37563 203.12111,203.12396 0 0 0 0.99181,0.37062 203.12111,203.12396 0 0 0 0.99486,0.36501 203.12111,203.12396 0 0 0 0.99631,0.36 203.12111,203.12396 0 0 0 0.99799,0.35564 203.12111,203.12396 0 0 0 0.99937,0.35 203.12111,203.12396 0 0 0 1.00249,0.345 203.12111,203.12396 0 0 0 1.00399,0.33813 203.12111,203.12396 0 0 0 1.00405,0.33438 203.12111,203.12396 0 0 0 1.00706,0.3275 203.12111,203.12396 0 0 0 1.00855,0.32375 203.12111,203.12396 0 0 0 1.01168,0.31875 203.12111,203.12396 0 0 0 1.01155,0.3125 203.12111,203.12396 0 0 0 1.01324,0.30813 203.12111,203.12396 0 0 0 1.01618,0.30187 203.12111,203.12396 0 0 0 1.01631,0.29626 203.12111,203.12396 0 0 0 1.01768,0.29312 203.12111,203.12396 0 0 0 1.02074,0.28562 203.12111,203.12396 0 0 0 1.02086,0.28064 203.12111,203.12396 0 0 0 1.02231,0.27562 203.12111,203.12396 0 0 0 1.0238,0.27001 203.12111,203.12396 0 0 0 1.02693,0.26562 203.12111,203.12396 0 0 0 1.02693,0.25937 203.12111,203.12396 0 0 0 1.02836,0.25501 203.12111,203.12396 0 0 0 1.02837,0.24812 203.12111,203.12396 0 0 0 1.03155,0.24438 203.12111,203.12396 0 0 0 1.03149,0.2375 203.12111,203.12396 0 0 0 1.03456,0.23375 203.12111,203.12396 0 0 0 1.03455,0.22688 203.12111,203.12396 0 0 0 1.03443,0.22063 203.12111,203.12396 0 0 0 1.03755,0.21687 203.12111,203.12396 0 0 0 1.03762,0.21187 203.12111,203.12396 0 0 0 1.03912,0.20626 203.12111,203.12396 0 0 0 1.04074,0.20063 203.12111,203.12396 0 0 0 1.04055,0.19562 203.12111,203.12396 0 0 0 1.04212,0.18875 203.12111,203.12396 0 0 0 0.33562,0.0562 h 70.98245 a 203.12111,203.12396 0 0 0 0.55125,-0.0975 203.12111,203.12396 0 0 0 1.04218,-0.19062 203.12111,203.12396 0 0 0 1.04211,-0.19688 203.12111,203.12396 0 0 0 1.03912,-0.20125 203.12111,203.12396 0 0 0 1.03911,-0.2075 203.12111,203.12396 0 0 0 1.03756,-0.21188 203.12111,203.12396 0 0 0 1.03605,-0.21812 203.12111,203.12396 0 0 0 1.03599,-0.22313 203.12111,203.12396 0 0 0 1.03456,-0.22875 203.12111,203.12396 0 0 0 1.03305,-0.23375 203.12111,203.12396 0 0 0 1.03143,-0.23938 203.12111,203.12396 0 0 0 1.03149,-0.24438 203.12111,203.12396 0 0 0 1.02836,-0.24999 203.12111,203.12396 0 0 0 1.02843,-0.25626 203.12111,203.12396 0 0 0 1.02693,-0.25937 203.12111,203.12396 0 0 0 1.02543,-0.26688 203.12111,203.12396 0 0 0 1.0238,-0.27188 203.12111,203.12396 0 0 0 1.02231,-0.27687 203.12111,203.12396 0 0 0 1.0208,-0.28251 203.12111,203.12396 0 0 0 1.01931,-0.28875 203.12111,203.12396 0 0 0 1.01774,-0.29312 203.12111,203.12396 0 0 0 1.0178,-0.29751 203.12111,203.12396 0 0 0 1.01455,-0.30374 203.12111,203.12396 0 0 0 1.01325,-0.30814 203.12111,203.12396 0 0 0 1.01155,-0.31374 203.12111,203.12396 0 0 0 1.01012,-0.31876 203.12111,203.12396 0 0 0 1.00861,-0.32562 203.12111,203.12396 0 0 0 1.00556,-0.32938 203.12111,203.12396 0 0 0 1.00549,-0.33563 203.12111,203.12396 0 0 0 1.00255,-0.34 203.12111,203.12396 0 0 0 1.00249,-0.345 203.12111,203.12396 0 0 0 0.99943,-0.35125 203.12111,203.12396 0 0 0 0.99787,-0.35564 203.12111,203.12396 0 0 0 0.99486,-0.36186 203.12111,203.12396 0 0 0 0.99487,-0.36627 203.12111,203.12396 0 0 0 0.9918,-0.37062 203.12111,203.12396 0 0 0 0.99025,-0.37626 203.12111,203.12396 0 0 0 0.98724,-0.38126 203.12111,203.12396 0 0 0 0.98568,-0.38812 203.12111,203.12396 0 0 0 0.98418,-0.39188 203.12111,203.12396 0 0 0 0.98267,-0.39687 203.12111,203.12396 0 0 0 0.97956,-0.40251 203.12111,203.12396 0 0 0 0.97805,-0.40749 203.12111,203.12396 0 0 0 0.97499,-0.41188 203.12111,203.12396 0 0 0 0.97356,-0.41813 203.12111,203.12396 0 0 0 0.97199,-0.4225 203.12111,203.12396 0 0 0 0.96887,-0.42688 203.12111,203.12396 0 0 0 0.96743,-0.43313 203.12111,203.12396 0 0 0 0.96436,-0.43813 203.12111,203.12396 0 0 0 0.96124,-0.44187 203.12111,203.12396 0 0 0 0.96125,-0.44875 203.12111,203.12396 0 0 0 0.95674,-0.45188 203.12111,203.12396 0 0 0 0.95518,-0.4575 203.12111,203.12396 0 0 0 0.95368,-0.46438 203.12111,203.12396 0 0 0 0.94911,-0.46626 203.12111,203.12396 0 0 0 0.949,-0.47312 203.12111,203.12396 0 0 0 0.94461,-0.47813 203.12111,203.12396 0 0 0 0.94293,-0.48188 203.12111,203.12396 0 0 0 0.94137,-0.48812 203.12111,203.12396 0 0 0 0.93699,-0.49251 203.12111,203.12396 0 0 0 0.93531,-0.4975 203.12111,203.12396 0 0 0 0.93374,-0.5025 203.12111,203.12396 0 0 0 0.92924,-0.50625 203.12111,203.12396 0 0 0 0.9278,-0.51126 203.12111,203.12396 0 0 0 0.92468,-0.51688 203.12111,203.12396 0 0 0 0.92162,-0.52187 203.12111,203.12396 0 0 0 0.92006,-0.52626 203.12111,203.12396 0 0 0 0.91542,-0.53063 203.12111,203.12396 0 0 0 0.914,-0.53563 203.12111,203.12396 0 0 0 0.91099,-0.54062 203.12111,203.12396 0 0 0 0.90787,-0.54625 203.12111,203.12396 0 0 0 0.90636,-0.54938 203.12111,203.12396 0 0 0 0.90181,-0.55501 203.12111,203.12396 0 0 0 0.89874,-0.55999 203.12111,203.12396 0 0 0 0.89712,-0.56313 203.12111,203.12396 0 0 0 0.89418,-0.56938 203.12111,203.12396 0 0 0 0.88955,-0.57376 203.12111,203.12396 0 0 0 0.88799,-0.57875 203.12111,203.12396 0 0 0 0.88506,-0.58312 203.12111,203.12396 0 0 0 0.88037,-0.58751 203.12111,203.12396 0 0 0 0.87893,-0.5925 203.12111,203.12396 0 0 0 0.87586,-0.59626 203.12111,203.12396 0 0 0 0.87118,-0.60125 203.12111,203.12396 0 0 0 0.86981,-0.60626 203.12111,203.12396 0 0 0 0.86512,-0.60875 203.12111,203.12396 0 0 0 0.86361,-0.615 203.12111,203.12396 0 0 0 0.85912,-0.62 203.12111,203.12396 0 0 0 0.85599,-0.62376 203.12111,203.12396 0 0 0 0.85294,-0.62719 203.12111,203.12396 0 0 0 0.84993,-0.63282 203.12111,203.12396 0 0 0 0.84686,-0.63613 203.12111,203.12396 0 0 0 0.84218,-0.64256 203.12111,203.12396 0 0 0 0.84081,-0.64588 203.12111,203.12396 0 0 0 0.83618,-0.64987 203.12111,203.12396 0 0 0 0.83305,-0.65476 203.12111,203.12396 0 0 0 0.82856,-0.65881 203.12111,203.12396 0 0 0 0.82699,-0.66207 203.12111,203.12396 0 0 0 0.8225,-0.66857 203.12111,203.12396 0 0 0 0.81936,-0.671 203.12111,203.12396 0 0 0 0.81475,-0.67588 203.12111,203.12396 0 0 0 0.81174,-0.68069 203.12111,203.12396 0 0 0 0.80893,-0.68401 203.12111,203.12396 0 0 0 0.80568,-0.688 203.12111,203.12396 0 0 0 0.80074,-0.69457 203.12111,203.12396 0 0 0 0.79837,-0.69531 203.12111,203.12396 0 0 0 0.79349,-0.70182 203.12111,203.12396 0 0 0 0.79031,-0.70507 203.12111,203.12396 0 0 0 0.78618,-0.70912 203.12111,203.12396 0 0 0 0.78456,-0.71401 203.12111,203.12396 0 0 0 0.77805,-0.71725 203.12111,203.12396 0 0 0 0.7765,-0.72207 203.12111,203.12396 0 0 0 0.77074,-0.72456 203.12111,203.12396 0 0 0 0.76918,-0.72945 203.12111,203.12396 0 0 0 0.76268,-0.73425 203.12111,203.12396 0 0 0 0.76187,-0.73832 203.12111,203.12396 0 0 0 0.75537,-0.74156 203.12111,203.12396 0 0 0 0.75205,-0.74488 203.12111,203.12396 0 0 0 0.74894,-0.74888 203.12111,203.12396 0 0 0 0.7448,-0.75375 203.12111,203.12396 0 0 0 0.74156,-0.75694 203.12111,203.12396 0 0 0 0.73505,-0.76188 203.12111,203.12396 0 0 0 0.73431,-0.76432 203.12111,203.12396 0 0 0 0.72774,-0.76919 203.12111,203.12396 0 0 0 0.72456,-0.77239 203.12111,203.12396 0 0 0 0.72212,-0.7765 203.12111,203.12396 0 0 0 0.71718,-0.77969 203.12111,203.12396 0 0 0 0.71237,-0.78457 203.12111,203.12396 0 0 0 0.70831,-0.787 203.12111,203.12396 0 0 0 0.70505,-0.79188 203.12111,203.12396 0 0 0 0.70018,-0.7935 203.12111,203.12396 0 0 0 0.69537,-0.79919 203.12111,203.12396 0 0 0 0.69125,-0.80082 203.12111,203.12396 0 0 0 0.68799,-0.8057 203.12111,203.12396 0 0 0 0.68399,-0.81056 203.12111,203.12396 0 0 0 0.67912,-0.81176 203.12111,203.12396 0 0 0 0.67581,-0.81631 203.12111,203.12396 0 0 0 0.67018,-0.82094 203.12111,203.12396 0 0 0 0.66693,-0.82238 203.12111,203.12396 0 0 0 0.66206,-0.82707 203.12111,203.12396 0 0 0 0.658,-0.83001 203.12111,203.12396 0 0 0 0.65474,-0.83319 203.12111,203.12396 0 0 0 0.64831,-0.83769 203.12111,203.12396 0 0 0 0.6458,-0.84075 203.12111,203.12396 0 0 0 0.63937,-0.84382 203.12111,203.12396 0 0 0 0.63606,-0.84681 203.12111,203.12396 0 0 0 0.63206,-0.84995 203.12111,203.12396 0 0 0 0.62718,-0.85451 203.12111,203.12396 0 0 0 0.62249,-0.85594 203.12111,203.12396 0 0 0 0.61812,-0.86062 203.12111,203.12396 0 0 0 0.615,-0.86369 203.12111,203.12396 0 0 0 0.60874,-0.86664 203.12111,203.12396 0 0 0 0.60437,-0.86975 203.12111,203.12396 0 0 0 0.60125,-0.87276 203.12111,203.12396 0 0 0 0.59437,-0.87587 203.12111,203.12396 0 0 0 0.59062,-0.87895 203.12111,203.12396 0 0 0 0.58749,-0.88207 203.12111,203.12396 0 0 0 0.58062,-0.88494 203.12111,203.12396 0 0 0 0.57687,-0.888 203.12111,203.12396 0 0 0 0.57187,-0.89114 203.12111,203.12396 0 0 0 0.56875,-0.89419 203.12111,203.12396 0 0 0 0.56312,-0.89719 203.12111,203.12396 0 0 0 0.55812,-0.90019 203.12111,203.12396 0 0 0 0.55437,-0.90339 203.12111,203.12396 0 0 0 0.54937,-0.90625 203.12111,203.12396 0 0 0 0.54249,-0.908 203.12111,203.12396 0 0 0 0.54062,-0.91244 203.12111,203.12396 0 0 0 0.53562,-0.91401 203.12111,203.12396 0 0 0 0.53,-0.917 203.12111,203.12396 0 0 0 0.525,-0.92013 203.12111,203.12396 0 0 0 0.51999,-0.92164 203.12111,203.12396 0 0 0 0.51625,-0.92619 203.12111,203.12396 0 0 0 0.51124,-0.92769 203.12111,203.12396 0 0 0 0.50625,-0.93081 203.12111,203.12396 0 0 0 0.50062,-0.93233 203.12111,203.12396 0 0 0 0.49749,-0.93687 203.12111,203.12396 0 0 0 0.49188,-0.93838 203.12111,203.12396 0 0 0 0.48499,-0.94001 203.12111,203.12396 0 0 0 0.48187,-0.94444 203.12111,203.12396 0 0 0 0.47625,-0.94607 203.12111,203.12396 0 0 0 0.47312,-0.94757 203.12111,203.12396 0 0 0 0.46562,-0.95063 203.12111,203.12396 0 0 0 0.4625,-0.95362 203.12111,203.12396 0 0 0 0.45749,-0.95676 203.12111,203.12396 0 0 0 0.45187,-0.95669 203.12111,203.12396 0 0 0 0.44562,-0.96138 203.12111,203.12396 0 0 0 0.44188,-0.96276 203.12111,203.12396 0 0 0 0.43624,-0.96438 203.12111,203.12396 0 0 0 0.43187,-0.96738 203.12111,203.12396 0 0 0 0.4275,-0.97045 203.12111,203.12396 0 0 0 0.42125,-0.97193 203.12111,203.12396 0 0 0 0.41624,-0.97358 203.12111,203.12396 0 0 0 0.41187,-0.9765 203.12111,203.12396 0 0 0 0.40563,-0.97813 203.12111,203.12396 0 0 0 0.40187,-0.97963 203.12111,203.12396 0 0 0 0.39687,-0.98263 203.12111,203.12396 0 0 0 0.38999,-0.98425 203.12111,203.12396 0 0 0 0.38625,-0.9872 203.12111,203.12396 0 0 0 0.38125,-0.98725 203.12111,203.12396 0 0 0 0.37562,-0.99176 203.12111,203.12396 0 0 0 0.36937,-0.99182 203.12111,203.12396 0 0 0 0.36562,-0.99487 203.12111,203.12396 0 0 0 0.36,-0.99645 203.12111,203.12396 0 0 0 0.35375,-0.99788 203.12111,203.12396 0 0 0 0.34999,-0.99945 203.12111,203.12396 0 0 0 0.345,-1.00094 203.12111,203.12396 0 0 0 0.33937,-1.00406 203.12111,203.12396 0 0 0 0.33438,-1.00551 203.12111,203.12396 0 0 0 0.32937,-1.00707 203.12111,203.12396 0 0 0 0.32375,-1.00869 203.12111,203.12396 0 0 0 0.31749,-1.01007 203.12111,203.12396 0 0 0 0.31312,-1.01169 203.12111,203.12396 0 0 0 0.30813,-1.01463 203.12111,203.12396 0 0 0 0.30249,-1.01469 203.12111,203.12396 0 0 0 0.2975,-1.01633 203.12111,203.12396 0 0 0 0.29125,-1.01925 203.12111,203.12396 0 0 0 0.2875,-1.01932 203.12111,203.12396 0 0 0 0.28062,-1.02225 203.12111,203.12396 0 0 0 0.27562,-1.02232 203.12111,203.12396 0 0 0 0.27,-1.02388 203.12111,203.12396 0 0 0 0.26375,-1.02538 203.12111,203.12396 0 0 0 0.26125,-1.02695 203.12111,203.12396 0 0 0 0.25312,-1.02844 203.12111,203.12396 0 0 0 0.25,-1.02994 203.12111,203.12396 0 0 0 0.24249,-1.02994 203.12111,203.12396 0 0 0 0.2375,-1.03313 203.12111,203.12396 0 0 0 0.23375,-1.03295 203.12111,203.12396 0 0 0 0.2275,-1.03456 203.12111,203.12396 0 0 0 0.22312,-1.03601 203.12111,203.12396 0 0 0 0.21687,-1.03763 203.12111,203.12396 0 0 0 0.21063,-1.03757 203.12111,203.12396 0 0 0 0.20625,-1.03913 203.12111,203.12396 0 0 0 0.19937,-1.03907 203.12111,203.12396 0 0 0 0.19562,-1.04219 203.12111,203.12396 0 0 0 0.18938,-1.0422 203.12111,203.12396 0 0 0 0.0562,-0.33562 V 251.15359 192.50821 28.001061 H 263.4899 192.50745 Z" /><path
   id="rect1295"
   style="clip-rule:evenodd;display:inline;opacity:0.2;fill:url(#radialGradient1321);fill-opacity:1;fill-rule:evenodd;stroke:none;stroke-width:82.0299;stroke-linecap:square;stroke-linejoin:miter;stroke-miterlimit:4;stroke-dasharray:none;stroke-opacity:1;paint-order:normal;stop-color:#000000"
   d="m 28.00005,28.006441 v 164.510329 58.64225 12.33369 a 203.12111,203.12396 0 0 0 0.0987,0.55501 203.12111,203.12396 0 0 0 0.19062,1.04219 203.12111,203.12396 0 0 0 0.19563,1.04063 203.12111,203.12396 0 0 0 0.20124,1.04063 203.12111,203.12396 0 0 0 0.2075,1.03914 203.12111,203.12396 0 0 0 0.21188,1.03756 203.12111,203.12396 0 0 0 0.21812,1.03607 203.12111,203.12396 0 0 0 0.22312,1.03613 203.12111,203.12396 0 0 0 0.22875,1.0345 203.12111,203.12396 0 0 0 0.23375,1.03301 203.12111,203.12396 0 0 0 0.23937,1.03144 203.12111,203.12396 0 0 0 0.24562,1.02995 203.12111,203.12396 0 0 0 0.25,1.02994 203.12111,203.12396 0 0 0 0.255,1.02851 203.12111,203.12396 0 0 0 0.26125,1.02694 203.12111,203.12396 0 0 0 0.26499,1.02537 203.12111,203.12396 0 0 0 0.27188,1.02383 203.12111,203.12396 0 0 0 0.27749,1.02231 203.12111,203.12396 0 0 0 0.2825,1.02076 203.12111,203.12396 0 0 0 0.28625,1.01932 203.12111,203.12396 0 0 0 0.29312,1.01782 203.12111,203.12396 0 0 0 0.29813,1.01619 203.12111,203.12396 0 0 0 0.30374,1.01469 203.12111,203.12396 0 0 0 0.31,1.01476 203.12111,203.12396 0 0 0 0.31312,1.01169 203.12111,203.12396 0 0 0 0.32062,1.00851 203.12111,203.12396 0 0 0 0.32375,1.00869 203.12111,203.12396 0 0 0 0.32937,1.00707 203.12111,203.12396 0 0 0 0.33563,1.0055 203.12111,203.12396 0 0 0 0.33999,1.0025 203.12111,203.12396 0 0 0 0.345,1.00095 203.12111,203.12396 0 0 0 0.35125,0.99944 203.12111,203.12396 0 0 0 0.35562,0.99801 203.12111,203.12396 0 0 0 0.36187,0.99632 203.12111,203.12396 0 0 0 0.36562,0.99331 203.12111,203.12396 0 0 0 0.3725,0.99182 203.12111,203.12396 0 0 0 0.37562,0.99038 203.12111,203.12396 0 0 0 0.38312,0.9887 203.12111,203.12396 0 0 0 0.38625,0.98569 203.12111,203.12396 0 0 0 0.39187,0.98419 203.12111,203.12396 0 0 0 0.39812,0.98276 203.12111,203.12396 0 0 0 0.40187,0.9795 203.12111,203.12396 0 0 0 0.4075,0.97813 203.12111,203.12396 0 0 0 0.41375,0.97501 203.12111,203.12396 0 0 0 0.41624,0.9735 203.12111,203.12396 0 0 0 0.4225,0.97201 203.12111,203.12396 0 0 0 0.42937,0.96894 203.12111,203.12396 0 0 0 0.43187,0.96582 203.12111,203.12396 0 0 0 0.43812,0.96438 203.12111,203.12396 0 0 0 0.4425,0.96288 203.12111,203.12396 0 0 0 0.44875,0.95975 203.12111,203.12396 0 0 0 0.45374,0.9582 203.12111,203.12396 0 0 0 0.4575,0.95519 203.12111,203.12396 0 0 0 0.46249,0.95213 203.12111,203.12396 0 0 0 0.46813,0.9507 203.12111,203.12396 0 0 0 0.47312,0.9475 203.12111,203.12396 0 0 0 0.47812,0.94606 203.12111,203.12396 0 0 0 0.48187,0.94295 203.12111,203.12396 0 0 0 0.48687,0.93994 203.12111,203.12396 0 0 0 0.49312,0.9385 203.12111,203.12396 0 0 0 0.4975,0.93533 203.12111,203.12396 0 0 0 0.50249,0.93231 203.12111,203.12396 0 0 0 0.50625,0.93075 203.12111,203.12396 0 0 0 0.51312,0.92776 203.12111,203.12396 0 0 0 0.51624,0.9247 203.12111,203.12396 0 0 0 0.52187,0.92156 203.12111,203.12396 0 0 0 0.52625,0.91863 203.12111,203.12396 0 0 0 0.53062,0.91701 203.12111,203.12396 0 0 0 0.53562,0.91394 203.12111,203.12396 0 0 0 0.54187,0.911 203.12111,203.12396 0 0 0 0.54437,0.90794 203.12111,203.12396 0 0 0 0.55062,0.90483 203.12111,203.12396 0 0 0 0.55437,0.90337 203.12111,203.12396 0 0 0 0.56,0.89869 203.12111,203.12396 0 0 0 0.56499,0.89713 203.12111,203.12396 0 0 0 0.56937,0.89264 203.12111,203.12396 0 0 0 0.57187,0.89112 203.12111,203.12396 0 0 0 0.57875,0.88813 203.12111,203.12396 0 0 0 0.58249,0.88338 203.12111,203.12396 0 0 0 0.5875,0.88195 203.12111,203.12396 0 0 0 0.59249,0.87895 203.12111,203.12396 0 0 0 0.59625,0.87431 203.12111,203.12396 0 0 0 0.60124,0.87287 203.12111,203.12396 0 0 0 0.60625,0.86971 203.12111,203.12396 0 0 0 0.60999,0.86513 203.12111,203.12396 0 0 0 0.615,0.86369 203.12111,203.12396 0 0 0 0.61811,0.85906 203.12111,203.12396 0 0 0 0.62375,0.85601 203.12111,203.12396 0 0 0 0.62881,0.85301 203.12111,203.12396 0 0 0 0.63199,0.84988 203.12111,203.12396 0 0 0 0.63775,0.84688 203.12111,203.12396 0 0 0 0.64093,0.84225 203.12111,203.12396 0 0 0 0.64587,0.83931 203.12111,203.12396 0 0 0 0.64987,0.83607 203.12111,203.12396 0 0 0 0.65474,0.83313 203.12111,203.12396 0 0 0 0.65962,0.83007 203.12111,203.12396 0 0 0 0.66368,0.82557 203.12111,203.12396 0 0 0 0.66693,0.82237 203.12111,203.12396 0 0 0 0.671,0.81937 203.12111,203.12396 0 0 0 0.67587,0.81632 203.12111,203.12396 0 0 0 0.68068,0.81176 203.12111,203.12396 0 0 0 0.68481,0.80895 203.12111,203.12396 0 0 0 0.68799,0.80407 203.12111,203.12396 0 0 0 0.69293,0.80081 203.12111,203.12396 0 0 0 0.69693,0.79838 203.12111,203.12396 0 0 0 0.70018,0.79513 203.12111,203.12396 0 0 0 0.70506,0.79025 203.12111,203.12396 0 0 0 0.70993,0.78538 203.12111,203.12396 0 0 0 0.714,0.78294 203.12111,203.12396 0 0 0 0.71724,0.77977 203.12111,203.12396 0 0 0 0.72124,0.77481 203.12111,203.12396 0 0 0 0.72618,0.77244 203.12111,203.12396 0 0 0 0.72944,0.76751 203.12111,203.12396 0 0 0 0.73424,0.76431 203.12111,203.12396 0 0 0 0.73668,0.76025 203.12111,203.12396 0 0 0 0.74156,0.75701 203.12111,203.12396 0 0 0 0.74649,0.75213 203.12111,203.12396 0 0 0 0.74887,0.74888 203.12111,203.12396 0 0 0 0.75374,0.74481 203.12111,203.12396 0 0 0 0.75693,0.73994 203.12111,203.12396 0 0 0 0.76106,0.73676 203.12111,203.12396 0 0 0 0.76431,0.73263 203.12111,203.12396 0 0 0 0.76918,0.72944 203.12111,203.12396 0 0 0 0.77236,0.72449 203.12111,203.12396 0 0 0 0.7765,0.72051 203.12111,203.12396 0 0 0 0.77968,0.71726 203.12111,203.12396 0 0 0 0.78293,0.71238 203.12111,203.12396 0 0 0 0.78862,0.70988 203.12111,203.12396 0 0 0 0.79024,0.7035 203.12111,203.12396 0 0 0 0.79512,0.70019 203.12111,203.12396 0 0 0 0.79837,0.69613 203.12111,203.12396 0 0 0 0.80243,0.69287 203.12111,203.12396 0 0 0 0.80568,0.68807 203.12111,203.12396 0 0 0 0.80893,0.68394 203.12111,203.12396 0 0 0 0.81318,0.67913 203.12111,203.12396 0 0 0 0.81631,0.67426 203.12111,203.12396 0 0 0 0.81949,0.67175 203.12111,203.12396 0 0 0 0.82387,0.66694 203.12111,203.12396 0 0 0 0.82549,0.66207 203.12111,203.12396 0 0 0 0.83162,0.65806 203.12111,203.12396 0 0 0 0.83311,0.65313 203.12111,203.12396 0 0 0 0.83618,0.64988 203.12111,203.12396 0 0 0 0.84069,0.64419 203.12111,203.12396 0 0 0 0.8438,0.641 203.12111,203.12396 0 0 0 0.84687,0.63613 203.12111,203.12396 0 0 0 0.85137,0.632 203.12111,203.12396 0 0 0 0.85299,0.62719 203.12111,203.12396 0 0 0 0.85755,0.62251 203.12111,203.12396 0 0 0 0.859,0.61813 203.12111,203.12396 0 0 0 0.86368,0.61313 203.12111,203.12396 0 0 0 0.86668,0.61 203.12111,203.12396 0 0 0 0.86974,0.60437 203.12111,203.12396 0 0 0 0.87274,0.59938 203.12111,203.12396 0 0 0 0.87587,0.59626 203.12111,203.12396 0 0 0 0.87893,0.59063 203.12111,203.12396 0 0 0 0.88343,0.58563 203.12111,203.12396 0 0 0 0.88499,0.5825 203.12111,203.12396 0 0 0 0.88799,0.57687 203.12111,203.12396 0 0 0 0.89112,0.57188 203.12111,203.12396 0 0 0 0.89418,0.56813 203.12111,203.12396 0 0 0 0.89718,0.56313 203.12111,203.12396 0 0 0 0.90031,0.55812 203.12111,203.12396 0 0 0 0.90174,0.55438 203.12111,203.12396 0 0 0 0.9063,0.54938 203.12111,203.12396 0 0 0 0.90943,0.54438 203.12111,203.12396 0 0 0 0.91093,0.54063 203.12111,203.12396 0 0 0 0.91399,0.53375 203.12111,203.12396 0 0 0 0.91706,0.53063 203.12111,203.12396 0 0 0 0.92005,0.525 203.12111,203.12396 0 0 0 0.92318,0.52001 203.12111,203.12396 0 0 0 0.92468,0.51624 203.12111,203.12396 0 0 0 0.92768,0.51126 203.12111,203.12396 0 0 0 0.93081,0.50563 203.12111,203.12396 0 0 0 0.9338,0.5025 203.12111,203.12396 0 0 0 0.93537,0.49563 203.12111,203.12396 0 0 0 0.93836,0.49188 203.12111,203.12396 0 0 0 0.94143,0.48687 203.12111,203.12396 0 0 0 0.943,0.48188 203.12111,203.12396 0 0 0 0.94599,0.47626 203.12111,203.12396 0 0 0 0.94911,0.47124 203.12111,203.12396 0 0 0 0.95062,0.46626 203.12111,203.12396 0 0 0 0.95368,0.4625 203.12111,203.12396 0 0 0 0.95518,0.45562 203.12111,203.12396 0 0 0 0.95824,0.45189 203.12111,203.12396 0 0 0 0.95974,0.44688 203.12111,203.12396 0 0 0 0.96281,0.44249 203.12111,203.12396 0 0 0 0.9658,0.43626 203.12111,203.12396 0 0 0 0.96737,0.43187 203.12111,203.12396 0 0 0 0.96893,0.42751 203.12111,203.12396 0 0 0 0.97199,0.42125 203.12111,203.12396 0 0 0 0.97355,0.41625 203.12111,203.12396 0 0 0 0.9765,0.41188 203.12111,203.12396 0 0 0 0.97811,0.40562 203.12111,203.12396 0 0 0 0.98106,0.40188 203.12111,203.12396 0 0 0 0.98117,0.39501 203.12111,203.12396 0 0 0 0.98568,0.39187 203.12111,203.12396 0 0 0 0.98575,0.38626 203.12111,203.12396 0 0 0 0.98874,0.37937 203.12111,203.12396 0 0 0 0.99018,0.37563 203.12111,203.12396 0 0 0 0.99186,0.37062 203.12111,203.12396 0 0 0 0.99481,0.36501 203.12111,203.12396 0 0 0 0.99643,0.36 203.12111,203.12396 0 0 0 0.99786,0.35563 203.12111,203.12396 0 0 0 0.99949,0.35 203.12111,203.12396 0 0 0 1.00243,0.345 203.12111,203.12396 0 0 0 1.00406,0.33813 203.12111,203.12396 0 0 0 1.00399,0.33438 203.12111,203.12396 0 0 0 1.00705,0.3275 203.12111,203.12396 0 0 0 1.00862,0.32375 203.12111,203.12396 0 0 0 1.01161,0.31875 203.12111,203.12396 0 0 0 1.01162,0.3125 203.12111,203.12396 0 0 0 1.01312,0.30813 203.12111,203.12396 0 0 0 1.01624,0.30187 203.12111,203.12396 0 0 0 1.0163,0.29626 203.12111,203.12396 0 0 0 1.01762,0.29313 203.12111,203.12396 0 0 0 1.02086,0.28562 203.12111,203.12396 0 0 0 1.02075,0.28063 203.12111,203.12396 0 0 0 1.0223,0.27562 203.12111,203.12396 0 0 0 1.02393,0.27001 203.12111,203.12396 0 0 0 1.0268,0.26562 203.12111,203.12396 0 0 0 1.02693,0.25937 203.12111,203.12396 0 0 0 1.02849,0.25501 203.12111,203.12396 0 0 0 1.02843,0.24812 203.12111,203.12396 0 0 0 1.03149,0.24438 203.12111,203.12396 0 0 0 1.03143,0.2375 203.12111,203.12396 0 0 0 1.03449,0.23375 203.12111,203.12396 0 0 0 1.03455,0.22688 203.12111,203.12396 0 0 0 1.03456,0.22125 203.12111,203.12396 0 0 0 1.03755,0.21688 203.12111,203.12396 0 0 0 1.03755,0.21187 203.12111,203.12396 0 0 0 1.03918,0.20626 203.12111,203.12396 0 0 0 1.04062,0.19937 203.12111,203.12396 0 0 0 1.04055,0.19562 203.12111,203.12396 0 0 0 1.04218,0.18875 203.12111,203.12396 0 0 0 0.33562,0.0562 h 70.98246 a 203.12111,203.12396 0 0 0 0.55124,-0.0975 203.12111,203.12396 0 0 0 1.04212,-0.19062 203.12111,203.12396 0 0 0 1.04218,-0.19687 203.12111,203.12396 0 0 0 1.03905,-0.20125 203.12111,203.12396 0 0 0 1.03912,-0.20751 203.12111,203.12396 0 0 0 1.03755,-0.21187 203.12111,203.12396 0 0 0 1.03605,-0.21813 203.12111,203.12396 0 0 0 1.03612,-0.22313 203.12111,203.12396 0 0 0 1.03455,-0.22875 203.12111,203.12396 0 0 0 1.03293,-0.23374 203.12111,203.12396 0 0 0 1.03149,-0.23939 203.12111,203.12396 0 0 0 1.03143,-0.24437 203.12111,203.12396 0 0 0 1.02843,-0.25 203.12111,203.12396 0 0 0 1.02837,-0.25626 203.12111,203.12396 0 0 0 1.02692,-0.25874 203.12111,203.12396 0 0 0 1.0255,-0.26688 203.12111,203.12396 0 0 0 1.02374,-0.27188 203.12111,203.12396 0 0 0 1.02236,-0.27562 203.12111,203.12396 0 0 0 1.02074,-0.28251 203.12111,203.12396 0 0 0 1.01931,-0.28875 203.12111,203.12396 0 0 0 1.0178,-0.29312 203.12111,203.12396 0 0 0 1.01762,-0.29751 203.12111,203.12396 0 0 0 1.0148,-0.30374 203.12111,203.12396 0 0 0 1.01312,-0.30814 203.12111,203.12396 0 0 0 1.01168,-0.31374 203.12111,203.12396 0 0 0 1.01011,-0.31876 203.12111,203.12396 0 0 0 1.00856,-0.32562 203.12111,203.12396 0 0 0 1.00549,-0.32938 203.12111,203.12396 0 0 0 1.00549,-0.33563 203.12111,203.12396 0 0 0 1.00262,-0.34 203.12111,203.12396 0 0 0 1.00243,-0.345 203.12111,203.12396 0 0 0 0.99942,-0.35125 203.12111,203.12396 0 0 0 0.99793,-0.35563 203.12111,203.12396 0 0 0 0.99481,-0.36187 203.12111,203.12396 0 0 0 0.99486,-0.36626 203.12111,203.12396 0 0 0 0.99181,-0.37062 203.12111,203.12396 0 0 0 0.99024,-0.37626 203.12111,203.12396 0 0 0 0.9873,-0.38126 203.12111,203.12396 0 0 0 0.98562,-0.38812 203.12111,203.12396 0 0 0 0.98424,-0.39188 203.12111,203.12396 0 0 0 0.98262,-0.39687 203.12111,203.12396 0 0 0 0.97955,-0.40313 203.12111,203.12396 0 0 0 0.97806,-0.4075 203.12111,203.12396 0 0 0 0.97511,-0.41188 203.12111,203.12396 0 0 0 0.97343,-0.41812 203.12111,203.12396 0 0 0 0.97199,-0.42251 203.12111,203.12396 0 0 0 0.96893,-0.42688 203.12111,203.12396 0 0 0 0.96737,-0.43312 203.12111,203.12396 0 0 0 0.96437,-0.43813 203.12111,203.12396 0 0 0 0.96124,-0.4425 203.12111,203.12396 0 0 0 0.9613,-0.44875 203.12111,203.12396 0 0 0 0.95668,-0.45188 203.12111,203.12396 0 0 0 0.95518,-0.4575 203.12111,203.12396 0 0 0 0.95374,-0.46438 203.12111,203.12396 0 0 0 0.94906,-0.46626 203.12111,203.12396 0 0 0 0.94899,-0.47312 203.12111,203.12396 0 0 0 0.94462,-0.47813 203.12111,203.12396 0 0 0 0.94292,-0.48188 203.12111,203.12396 0 0 0 0.9415,-0.48812 203.12111,203.12396 0 0 0 0.93674,-0.49251 203.12111,203.12396 0 0 0 0.93543,-0.4975 203.12111,203.12396 0 0 0 0.93386,-0.5025 203.12111,203.12396 0 0 0 0.92925,-0.50625 203.12111,203.12396 0 0 0 0.92768,-0.51126 203.12111,203.12396 0 0 0 0.92468,-0.51751 203.12111,203.12396 0 0 0 0.92161,-0.52187 203.12111,203.12396 0 0 0 0.92006,-0.52625 203.12111,203.12396 0 0 0 0.91555,-0.53063 203.12111,203.12396 0 0 0 0.91393,-0.53563 203.12111,203.12396 0 0 0 0.91093,-0.54062 203.12111,203.12396 0 0 0 0.90787,-0.54626 203.12111,203.12396 0 0 0 0.90637,-0.54938 203.12111,203.12396 0 0 0 0.9018,-0.55563 203.12111,203.12396 0 0 0 0.89868,-0.55999 203.12111,203.12396 0 0 0 0.89718,-0.56313 203.12111,203.12396 0 0 0 0.89418,-0.56938 203.12111,203.12396 0 0 0 0.88955,-0.57376 203.12111,203.12396 0 0 0 0.88812,-0.57875 203.12111,203.12396 0 0 0 0.88499,-0.5825 203.12111,203.12396 0 0 0 0.88037,-0.5875 203.12111,203.12396 0 0 0 0.87887,-0.59251 203.12111,203.12396 0 0 0 0.87587,-0.59625 203.12111,203.12396 0 0 0 0.87124,-0.60126 203.12111,203.12396 0 0 0 0.86974,-0.605 203.12111,203.12396 0 0 0 0.86512,-0.60938 203.12111,203.12396 0 0 0 0.86368,-0.615 203.12111,203.12396 0 0 0 0.85905,-0.62 203.12111,203.12396 0 0 0 0.856,-0.62376 203.12111,203.12396 0 0 0 0.85293,-0.62719 203.12111,203.12396 0 0 0 0.84993,-0.63282 203.12111,203.12396 0 0 0 0.8468,-0.63613 203.12111,203.12396 0 0 0 0.84225,-0.64256 203.12111,203.12396 0 0 0 0.8408,-0.64588 203.12111,203.12396 0 0 0 0.83618,-0.64987 203.12111,203.12396 0 0 0 0.83306,-0.65476 203.12111,203.12396 0 0 0 0.82861,-0.65881 203.12111,203.12396 0 0 0 0.82693,-0.66207 203.12111,203.12396 0 0 0 0.8225,-0.66857 203.12111,203.12396 0 0 0 0.81937,-0.67181 203.12111,203.12396 0 0 0 0.8148,-0.67588 203.12111,203.12396 0 0 0 0.81174,-0.68069 203.12111,203.12396 0 0 0 0.80893,-0.6832 203.12111,203.12396 0 0 0 0.80569,-0.688 203.12111,203.12396 0 0 0 0.8008,-0.69457 203.12111,203.12396 0 0 0 0.79837,-0.69613 203.12111,203.12396 0 0 0 0.79349,-0.70181 203.12111,203.12396 0 0 0 0.79025,-0.70507 203.12111,203.12396 0 0 0 0.78536,-0.70913 203.12111,203.12396 0 0 0 0.78456,-0.714 203.12111,203.12396 0 0 0 0.77812,-0.71725 203.12111,203.12396 0 0 0 0.77643,-0.72126 203.12111,203.12396 0 0 0 0.7708,-0.72456 203.12111,203.12396 0 0 0 0.76912,-0.72945 203.12111,203.12396 0 0 0 0.76268,-0.73425 203.12111,203.12396 0 0 0 0.76187,-0.73832 203.12111,203.12396 0 0 0 0.75537,-0.74156 203.12111,203.12396 0 0 0 0.75212,-0.74488 203.12111,203.12396 0 0 0 0.74968,-0.74969 203.12111,203.12396 0 0 0 0.74481,-0.75376 203.12111,203.12396 0 0 0 0.74155,-0.75694 203.12111,203.12396 0 0 0 0.73593,-0.76106 203.12111,203.12396 0 0 0 0.73344,-0.76432 203.12111,203.12396 0 0 0 0.7278,-0.76919 203.12111,203.12396 0 0 0 0.7245,-0.77157 203.12111,203.12396 0 0 0 0.72211,-0.77651 203.12111,203.12396 0 0 0 0.71725,-0.77969 203.12111,203.12396 0 0 0 0.7123,-0.78456 203.12111,203.12396 0 0 0 0.70831,-0.78782 203.12111,203.12396 0 0 0 0.70512,-0.79188 203.12111,203.12396 0 0 0 0.70018,-0.7935 203.12111,203.12396 0 0 0 0.69612,-0.8 203.12111,203.12396 0 0 0 0.69124,-0.80082 203.12111,203.12396 0 0 0 0.68806,-0.8057 203.12111,203.12396 0 0 0 0.68312,-0.81057 203.12111,203.12396 0 0 0 0.67912,-0.81175 203.12111,203.12396 0 0 0 0.67587,-0.81638 203.12111,203.12396 0 0 0 0.67012,-0.82094 203.12111,203.12396 0 0 0 0.66693,-0.82244 203.12111,203.12396 0 0 0 0.66206,-0.82694 203.12111,203.12396 0 0 0 0.65805,-0.83014 203.12111,203.12396 0 0 0 0.65475,-0.83306 203.12111,203.12396 0 0 0 0.64824,-0.83775 203.12111,203.12396 0 0 0 0.64581,-0.84082 203.12111,203.12396 0 0 0 0.63937,-0.84382 203.12111,203.12396 0 0 0 0.63612,-0.84681 203.12111,203.12396 0 0 0 0.63199,-0.84989 203.12111,203.12396 0 0 0 0.62718,-0.8545 203.12111,203.12396 0 0 0 0.6225,-0.856 203.12111,203.12396 0 0 0 0.61812,-0.86057 203.12111,203.12396 0 0 0 0.61499,-0.86363 203.12111,203.12396 0 0 0 0.60875,-0.86676 203.12111,203.12396 0 0 0 0.60437,-0.86969 203.12111,203.12396 0 0 0 0.60124,-0.87281 203.12111,203.12396 0 0 0 0.59562,-0.87582 203.12111,203.12396 0 0 0 0.59062,-0.87895 203.12111,203.12396 0 0 0 0.5875,-0.88188 203.12111,203.12396 0 0 0 0.58187,-0.88506 203.12111,203.12396 0 0 0 0.57687,-0.88807 203.12111,203.12396 0 0 0 0.57187,-0.89113 203.12111,203.12396 0 0 0 0.56937,-0.89413 203.12111,203.12396 0 0 0 0.56312,-0.89725 203.12111,203.12396 0 0 0 0.55812,-0.90019 203.12111,203.12396 0 0 0 0.55437,-0.90339 203.12111,203.12396 0 0 0 0.54937,-0.90638 203.12111,203.12396 0 0 0 0.54374,-0.90781 203.12111,203.12396 0 0 0 0.54062,-0.91257 203.12111,203.12396 0 0 0 0.53562,-0.91395 203.12111,203.12396 0 0 0 0.53,-0.917 203.12111,203.12396 0 0 0 0.525,-0.92006 203.12111,203.12396 0 0 0 0.51999,-0.92177 203.12111,203.12396 0 0 0 0.51625,-0.92612 203.12111,203.12396 0 0 0 0.51124,-0.92769 203.12111,203.12396 0 0 0 0.50625,-0.93082 203.12111,203.12396 0 0 0 0.50062,-0.93232 203.12111,203.12396 0 0 0 0.49749,-0.93688 203.12111,203.12396 0 0 0 0.49188,-0.93844 203.12111,203.12396 0 0 0 0.48499,-0.93995 203.12111,203.12396 0 0 0 0.48187,-0.9445 203.12111,203.12396 0 0 0 0.47625,-0.946 203.12111,203.12396 0 0 0 0.47312,-0.94764 203.12111,203.12396 0 0 0 0.46562,-0.95056 203.12111,203.12396 0 0 0 0.4625,-0.95369 203.12111,203.12396 0 0 0 0.45749,-0.9567 203.12111,203.12396 0 0 0 0.45187,-0.95669 203.12111,203.12396 0 0 0 0.44562,-0.96138 203.12111,203.12396 0 0 0 0.44188,-0.96276 203.12111,203.12396 0 0 0 0.43624,-0.96437 203.12111,203.12396 0 0 0 0.43187,-0.96738 203.12111,203.12396 0 0 0 0.4275,-0.97045 203.12111,203.12396 0 0 0 0.42125,-0.972 203.12111,203.12396 0 0 0 0.41624,-0.97351 203.12111,203.12396 0 0 0 0.41187,-0.97657 203.12111,203.12396 0 0 0 0.40562,-0.97806 203.12111,203.12396 0 0 0 0.40188,-0.97964 203.12111,203.12396 0 0 0 0.39687,-0.98262 203.12111,203.12396 0 0 0 0.38999,-0.98419 203.12111,203.12396 0 0 0 0.38625,-0.98727 203.12111,203.12396 0 0 0 0.38125,-0.98725 203.12111,203.12396 0 0 0 0.37562,-0.99182 203.12111,203.12396 0 0 0 0.36937,-0.99175 203.12111,203.12396 0 0 0 0.36625,-0.99494 203.12111,203.12396 0 0 0 0.36,-0.99639 203.12111,203.12396 0 0 0 0.35374,-0.99787 203.12111,203.12396 0 0 0 0.34937,-0.99945 203.12111,203.12396 0 0 0 0.345,-1.001 203.12111,203.12396 0 0 0 0.33937,-1.00394 203.12111,203.12396 0 0 0 0.33438,-1.00564 203.12111,203.12396 0 0 0 0.32937,-1.007 203.12111,203.12396 0 0 0 0.32375,-1.00864 203.12111,203.12396 0 0 0 0.31749,-1.01012 203.12111,203.12396 0 0 0 0.3125,-1.01169 203.12111,203.12396 0 0 0 0.30812,-1.0147 203.12111,203.12396 0 0 0 0.30187,-1.01469 203.12111,203.12396 0 0 0 0.2975,-1.0162 203.12111,203.12396 0 0 0 0.29125,-1.01931 203.12111,203.12396 0 0 0 0.2875,-1.01933 203.12111,203.12396 0 0 0 0.28062,-1.02231 203.12111,203.12396 0 0 0 0.27562,-1.02231 203.12111,203.12396 0 0 0 0.27,-1.02383 203.12111,203.12396 0 0 0 0.26437,-1.02537 203.12111,203.12396 0 0 0 0.26125,-1.02695 203.12111,203.12396 0 0 0 0.25312,-1.02838 203.12111,203.12396 0 0 0 0.25,-1.03007 203.12111,203.12396 0 0 0 0.2425,-1.02994 203.12111,203.12396 0 0 0 0.2375,-1.033 203.12111,203.12396 0 0 0 0.23374,-1.03301 203.12111,203.12396 0 0 0 0.2275,-1.03457 203.12111,203.12396 0 0 0 0.22313,-1.03601 203.12111,203.12396 0 0 0 0.21687,-1.03762 203.12111,203.12396 0 0 0 0.21,-1.03758 203.12111,203.12396 0 0 0 0.20625,-1.03912 203.12111,203.12396 0 0 0 0.19937,-1.03908 203.12111,203.12396 0 0 0 0.19562,-1.04219 203.12111,203.12396 0 0 0 0.18875,-1.04219 203.12111,203.12396 0 0 0 0.0562,-0.33625 V 251.15259 192.50727 28.000001 H 263.49246 192.50995 Z" /><path
   id="rect1126-9"
   style="clip-rule:evenodd;display:inline;fill:url(#linearGradient1332);fill-opacity:1;fill-rule:evenodd;stroke:none;stroke-width:15.6248;stroke-linecap:round;stroke-linejoin:round;stroke-miterlimit:2;paint-order:stroke fill markers;stop-color:#000000"
   d="m 227.99627,68.463408 a 85.935849,85.937053 0 0 0 -85.93589,85.937092 85.935849,85.937053 0 0 0 30.8038,65.9191 l -28.49369,116.4042 h 167.253 L 283.12973,220.32116 A 85.935849,85.937053 0 0 0 313.93209,154.4005 85.935849,85.937053 0 0 0 227.99627,68.463408 Z" /><path
   id="path1165-9"
   style="color:#000000;font-style:normal;font-variant:normal;font-weight:normal;font-stretch:normal;font-size:medium;line-height:normal;font-family:sans-serif;font-variant-ligatures:normal;font-variant-position:normal;font-variant-caps:normal;font-variant-numeric:normal;font-variant-alternates:normal;font-variant-east-asian:normal;font-feature-settings:normal;font-variation-settings:normal;text-indent:0;text-align:start;text-decoration:none;text-decoration-line:none;text-decoration-style:solid;text-decoration-color:#000000;letter-spacing:normal;word-spacing:normal;text-transform:none;writing-mode:lr-tb;direction:ltr;text-orientation:mixed;dominant-baseline:auto;baseline-shift:baseline;text-anchor:start;white-space:normal;shape-padding:0;shape-margin:0;inline-size:0;clip-rule:nonzero;display:inline;overflow:visible;visibility:visible;isolation:auto;mix-blend-mode:normal;color-interpolation:sRGB;color-interpolation-filters:linearRGB;solid-color:#000000;solid-opacity:1;vector-effect:none;fill:#000000;fill-opacity:1;fill-rule:nonzero;stroke:none;stroke-width:82.0299;stroke-linecap:square;stroke-linejoin:miter;stroke-miterlimit:4;stroke-dasharray:none;stroke-dashoffset:0;stroke-opacity:1;paint-order:normal;color-rendering:auto;image-rendering:auto;shape-rendering:auto;text-rendering:auto;enable-background:accumulate;stop-color:#000000"
   d="m 227.99771,109.48 c -25.29497,0 -44.92399,19.62474 -44.92399,44.92006 0,13.33089 5.87513,25.90495 16.1008,34.45725 l 19.60252,16.39702 -22.14013,90.45662 h 62.72171 l -22.14474,-90.45662 19.60108,-16.39702 c 10.22554,-8.55268 16.10267,-21.1263 16.1023,-34.45725 0,-25.29532 -19.62452,-44.92006 -44.91955,-44.92006 z" /></svg>
