<?xml version="1.0" encoding="UTF-8" standalone="no"?>
<svg
   width="456"
   height="456"
   viewBox="0 0 456 456"
   version="1.1"
   xml:space="preserve"
   style="fill-rule:evenodd;clip-rule:evenodd;stroke-linejoin:round;stroke-miterlimit:2;"
   id="svg4"
   sodipodi:docname="splash.svg"
   inkscape:version="1.3 (0e150ed6c4, 2023-07-21)"
   xmlns:inkscape="http://www.inkscape.org/namespaces/inkscape"
   xmlns:sodipodi="http://sodipodi.sourceforge.net/DTD/sodipodi-0.dtd"
   xmlns:xlink="http://www.w3.org/1999/xlink"
   xmlns="http://www.w3.org/2000/svg"
   xmlns:svg="http://www.w3.org/2000/svg"><defs
   id="defs4"><filter
     style="color-interpolation-filters:sRGB"
     id="filter5529"
     x="-0.036221311"
     width="1.0724426"
     y="-0.17466404"
     height="1.3493281"><feGaussianBlur
       stdDeviation="1.8592143"
       id="feGaussianBlur5531" /></filter><linearGradient
     xlink:href="#linearGradient1344"
     id="linearGradient1336"
     x1="235.60191"
     y1="764.90649"
     x2="652.84961"
     y2="305.25977"
     gradientUnits="userSpaceOnUse"
     gradientTransform="matrix(0.48828057,0,0,0.48828057,34.225882,-86.683206)" /><linearGradient
     id="linearGradient1344"><stop
       style="stop-color:#ffd42a;stop-opacity:1"
       offset="0"
       id="stop1338" /><stop
       style="stop-color:#ff2a2a;stop-opacity:1"
       offset="1"
       id="stop1342" /></linearGradient><radialGradient
     xlink:href="#linearGradient1319"
     id="radialGradient1321"
     cx="396.84961"
     cy="561.25977"
     fx="396.84961"
     fy="561.25977"
     r="256"
     gradientUnits="userSpaceOnUse"
     gradientTransform="matrix(0.48828057,0,0,0.48828057,34.225882,-86.683206)" /><linearGradient
     id="linearGradient1319"><stop
       style="stop-color:#4682b4;stop-opacity:1"
       offset="0"
       id="stop1315" /><stop
       style="stop-color:#4682b4;stop-opacity:0"
       offset="0.34945616"
       id="stop1323" /><stop
       style="stop-color:#000000;stop-opacity:1"
       offset="1"
       id="stop1317" /></linearGradient><linearGradient
     xlink:href="#linearGradient1330"
     id="linearGradient1332"
     x1="314.70901"
     y1="667.92328"
     x2="483.22717"
     y2="400.45816"
     gradientUnits="userSpaceOnUse"
     gradientTransform="matrix(0.48828057,0,0,0.48828057,34.225882,-86.683206)" /><linearGradient
     id="linearGradient1330"><stop
       style="stop-color:#0055d4;stop-opacity:1"
       offset="0"
       id="stop1326" /><stop
       style="stop-color:#55d400;stop-opacity:1"
       offset="1"
       id="stop1328" /></linearGradient></defs><sodipodi:namedview
   id="namedview4"
   pagecolor="#505050"
   bordercolor="#ffffff"
   borderopacity="1"
   inkscape:showpageshadow="0"
   inkscape:pageopacity="0"
   inkscape:pagecheckerboard="1"
   inkscape:deskcolor="#d1d1d1"
   inkscape:zoom="1.3087678"
   inkscape:cx="218.52616"
   inkscape:cy="244.50479"
   inkscape:window-width="1920"
   inkscape:window-height="1057"
   inkscape:window-x="-8"
   inkscape:window-y="-8"
   inkscape:window-maximized="1"
   inkscape:current-layer="svg4" />&#10;    &#10;    &#10;    &#10;    &#10;<g
   id="g3"
   transform="matrix(0.80000084,0,0,0.80000084,45.599809,2.1048139)"><path
     id="path1334"
     style="clip-rule:evenodd;display:inline;opacity:1;fill:url(#linearGradient1336);fill-opacity:1;fill-rule:evenodd;stroke:none;stroke-width:51.2694;stroke-linecap:square;stroke-linejoin:miter;stroke-miterlimit:4;stroke-dasharray:none;stroke-opacity:1;paint-order:normal;stop-color:#000000"
     d="m 103,62.369204 v 102.819286 36.65156 7.70855 a 126.95296,126.95296 0 0 0 0.062,0.34713 126.95296,126.95296 0 0 0 0.11921,0.65136 126.95296,126.95296 0 0 0 0.12199,0.6504 126.95296,126.95296 0 0 0 0.12586,0.65041 126.95296,126.95296 0 0 0 0.12974,0.64945 126.95296,126.95296 0 0 0 0.1325,0.6485 126.95296,126.95296 0 0 0 0.13638,0.64753 126.95296,126.95296 0 0 0 0.13915,0.64756 126.95296,126.95296 0 0 0 0.14302,0.64658 126.95296,126.95296 0 0 0 0.14598,0.64563 126.95296,126.95296 0 0 0 0.14967,0.6447 126.95296,126.95296 0 0 0 0.15354,0.64372 126.95296,126.95296 0 0 0 0.15631,0.64374 126.95296,126.95296 0 0 0 0.15927,0.64277 126.95296,126.95296 0 0 0 0.16314,0.64182 126.95296,126.95296 0 0 0 0.1659,0.64088 126.95296,126.95296 0 0 0 0.16979,0.63992 126.95296,126.95296 0 0 0 0.17347,0.63895 126.95296,126.95296 0 0 0 0.17643,0.638 126.95296,126.95296 0 0 0 0.17938,0.63705 126.95296,126.95296 0 0 0 0.18307,0.6361 126.95296,126.95296 0 0 0 0.18597,0.63515 126.95296,126.95296 0 0 0 0.18978,0.63418 126.95296,126.95296 0 0 0 0.19359,0.6342 126.95296,126.95296 0 0 0 0.19551,0.6323 126.95296,126.95296 0 0 0 0.20027,0.63037 126.95296,126.95296 0 0 0 0.20217,0.63038 126.95296,126.95296 0 0 0 0.206,0.62942 126.95296,126.95296 0 0 0 0.20981,0.62847 126.95296,126.95296 0 0 0 0.21267,0.62657 126.95296,126.95296 0 0 0 0.21553,0.6256 126.95296,126.95296 0 0 0 0.21934,0.62467 126.95296,126.95296 0 0 0 0.22221,0.62369 126.95296,126.95296 0 0 0 0.22601,0.62276 126.95296,126.95296 0 0 0 0.2289,0.62084 126.95296,126.95296 0 0 0 0.23269,0.61989 126.95296,126.95296 0 0 0 0.2346,0.61893 126.95296,126.95296 0 0 0 0.23937,0.61797 126.95296,126.95296 0 0 0 0.24128,0.61608 126.95296,126.95296 0 0 0 0.2451,0.61511 126.95296,126.95296 0 0 0 0.2489,0.61417 126.95296,126.95296 0 0 0 0.25081,0.61225 126.95296,126.95296 0 0 0 0.25464,0.61132 126.95296,126.95296 0 0 0 0.25844,0.60939 126.95296,126.95296 0 0 0 0.26036,0.60845 126.95296,126.95296 0 0 0 0.26416,0.60749 126.95296,126.95296 0 0 0 0.26798,0.60558 126.95296,126.95296 0 0 0 0.2699,0.60367 126.95296,126.95296 0 0 0 0.2737,0.60273 126.95296,126.95296 0 0 0 0.27657,0.60177 126.95296,126.95296 0 0 0 0.28038,0.59985 126.95296,126.95296 0 0 0 0.28324,0.59891 126.95296,126.95296 0 0 0 0.2861,0.59699 126.95296,126.95296 0 0 0 0.28897,0.59509 126.95296,126.95296 0 0 0 0.29276,0.59415 126.95296,126.95296 0 0 0 0.29565,0.59223 126.95296,126.95296 0 0 0 0.2985,0.59127 126.95296,126.95296 0 0 0 0.30137,0.58937 126.95296,126.95296 0 0 0 0.3042,0.58747 126.95296,126.95296 0 0 0 0.30805,0.58651 126.95296,126.95296 0 0 0 0.31089,0.58461 126.95296,126.95296 0 0 0 0.31377,0.58268 126.95296,126.95296 0 0 0 0.31662,0.58174 126.95296,126.95296 0 0 0 0.32043,0.57984 126.95296,126.95296 0 0 0 0.32233,0.57793 126.95296,126.95296 0 0 0 0.32617,0.576 126.95296,126.95296 0 0 0 0.32901,0.57413 126.95296,126.95296 0 0 0 0.33189,0.57315 126.95296,126.95296 0 0 0 0.33473,0.57124 126.95296,126.95296 0 0 0 0.33855,0.56935 126.95296,126.95296 0 0 0 0.34047,0.56742 126.95296,126.95296 0 0 0 0.34428,0.56555 126.95296,126.95296 0 0 0 0.34617,0.56457 126.95296,126.95296 0 0 0 0.35001,0.56172 126.95296,126.95296 0 0 0 0.35285,0.56075 126.95296,126.95296 0 0 0 0.35572,0.55791 126.95296,126.95296 0 0 0 0.35763,0.55694 126.95296,126.95296 0 0 0 0.36144,0.55504 126.95296,126.95296 0 0 0 0.36429,0.55217 126.95296,126.95296 0 0 0 0.36718,0.55122 126.95296,126.95296 0 0 0 0.37001,0.54932 126.95296,126.95296 0 0 0 0.3729,0.54645 126.95296,126.95296 0 0 0 0.37574,0.5455 126.95296,126.95296 0 0 0 0.37861,0.54359 126.95296,126.95296 0 0 0 0.38146,0.54073 126.95296,126.95296 0 0 0 0.38434,0.53978 126.95296,126.95296 0 0 0 0.38624,0.53693 126.95296,126.95296 0 0 0 0.39006,0.53501 126.95296,126.95296 0 0 0 0.3929,0.5331 126.95296,126.95296 0 0 0 0.39484,0.5312 126.95296,126.95296 0 0 0 0.39862,0.52929 126.95296,126.95296 0 0 0 0.40054,0.52642 126.95296,126.95296 0 0 0 0.40342,0.52451 126.95296,126.95296 0 0 0 0.40626,0.52263 126.95296,126.95296 0 0 0 0.40912,0.5207 126.95296,126.95296 0 0 0 0.41198,0.51879 126.95296,126.95296 0 0 0 0.41485,0.51593 126.95296,126.95296 0 0 0 0.41676,0.51405 126.95296,126.95296 0 0 0 0.41962,0.51211 126.95296,126.95296 0 0 0 0.42247,0.51022 126.95296,126.95296 0 0 0 0.42534,0.50735 126.95296,126.95296 0 0 0 0.42821,0.50544 126.95296,126.95296 0 0 0 0.4301,0.5026 126.95296,126.95296 0 0 0 0.43297,0.50068 126.95296,126.95296 0 0 0 0.43582,0.49877 126.95296,126.95296 0 0 0 0.43773,0.49686 126.95296,126.95296 0 0 0 0.44061,0.49401 126.95296,126.95296 0 0 0 0.44344,0.49114 126.95296,126.95296 0 0 0 0.44633,0.48923 126.95296,126.95296 0 0 0 0.44823,0.48734 126.95296,126.95296 0 0 0 0.45109,0.48445 126.95296,126.95296 0 0 0 0.45395,0.48257 126.95296,126.95296 0 0 0 0.45585,0.47969 126.95296,126.95296 0 0 0 0.45872,0.4778 126.95296,126.95296 0 0 0 0.46061,0.47492 126.95296,126.95296 0 0 0 0.46349,0.47302 126.95296,126.95296 0 0 0 0.46636,0.47015 126.95296,126.95296 0 0 0 0.46825,0.46827 126.95296,126.95296 0 0 0 0.4711,0.46539 126.95296,126.95296 0 0 0 0.47302,0.46253 126.95296,126.95296 0 0 0 0.47589,0.46063 126.95296,126.95296 0 0 0 0.47779,0.45775 126.95296,126.95296 0 0 0 0.48065,0.45587 126.95296,126.95296 0 0 0 0.48256,0.45299 126.95296,126.95296 0 0 0 0.48543,0.45013 126.95296,126.95296 0 0 0 0.48732,0.44822 126.95296,126.95296 0 0 0 0.48923,0.44537 126.95296,126.95296 0 0 0 0.49305,0.44345 126.95296,126.95296 0 0 0 0.494,0.43964 126.95296,126.95296 0 0 0 0.49687,0.43775 126.95296,126.95296 0 0 0 0.49876,0.43487 126.95296,126.95296 0 0 0 0.50164,0.43297 126.95296,126.95296 0 0 0 0.50353,0.4301 126.95296,126.95296 0 0 0 0.50546,0.42726 126.95296,126.95296 0 0 0 0.5083,0.42439 126.95296,126.95296 0 0 0 0.51022,0.4215 126.95296,126.95296 0 0 0 0.51214,0.41963 126.95296,126.95296 0 0 0 0.51497,0.41675 126.95296,126.95296 0 0 0 0.51593,0.41389 126.95296,126.95296 0 0 0 0.51975,0.41104 126.95296,126.95296 0 0 0 0.52072,0.40817 126.95296,126.95296 0 0 0 0.52262,0.40625 126.95296,126.95296 0 0 0 0.52545,0.40247 126.95296,126.95296 0 0 0 0.52739,0.40053 126.95296,126.95296 0 0 0 0.5293,0.39769 126.95296,126.95296 0 0 0 0.53213,0.39482 126.95296,126.95296 0 0 0 0.5331,0.39195 126.95296,126.95296 0 0 0 0.53597,0.38911 126.95296,126.95296 0 0 0 0.53692,0.38624 126.95296,126.95296 0 0 0 0.53978,0.38337 126.95296,126.95296 0 0 0 0.54168,0.38148 126.95296,126.95296 0 0 0 0.5436,0.37764 126.95296,126.95296 0 0 0 0.54551,0.3748 126.95296,126.95296 0 0 0 0.5474,0.37289 126.95296,126.95296 0 0 0 0.54933,0.36908 126.95296,126.95296 0 0 0 0.55215,0.36619 126.95296,126.95296 0 0 0 0.55315,0.36431 126.95296,126.95296 0 0 0 0.55502,0.36048 126.95296,126.95296 0 0 0 0.55695,0.35763 126.95296,126.95296 0 0 0 0.55886,0.35477 126.95296,126.95296 0 0 0 0.56077,0.3519 126.95296,126.95296 0 0 0 0.56266,0.34905 126.95296,126.95296 0 0 0 0.56361,0.34618 126.95296,126.95296 0 0 0 0.56648,0.34333 126.95296,126.95296 0 0 0 0.56839,0.34045 126.95296,126.95296 0 0 0 0.56934,0.33762 126.95296,126.95296 0 0 0 0.57125,0.33378 126.95296,126.95296 0 0 0 0.57317,0.33187 126.95296,126.95296 0 0 0 0.57507,0.32807 126.95296,126.95296 0 0 0 0.57696,0.3252 126.95296,126.95296 0 0 0 0.57793,0.32234 126.95296,126.95296 0 0 0 0.57983,0.31949 126.95296,126.95296 0 0 0 0.58174,0.31567 126.95296,126.95296 0 0 0 0.58365,0.31374 126.95296,126.95296 0 0 0 0.58461,0.30995 126.95296,126.95296 0 0 0 0.58649,0.30709 126.95296,126.95296 0 0 0 0.58843,0.3042 126.95296,126.95296 0 0 0 0.58937,0.30137 126.95296,126.95296 0 0 0 0.59127,0.29755 126.95296,126.95296 0 0 0 0.59319,0.29468 126.95296,126.95296 0 0 0 0.59414,0.29182 126.95296,126.95296 0 0 0 0.59605,0.28897 126.95296,126.95296 0 0 0 0.597,0.28516 126.95296,126.95296 0 0 0 0.5989,0.28228 126.95296,126.95296 0 0 0 0.59987,0.27943 126.95296,126.95296 0 0 0 0.60176,0.27656 126.95296,126.95296 0 0 0 0.60367,0.27276 126.95296,126.95296 0 0 0 0.60464,0.26988 126.95296,126.95296 0 0 0 0.60557,0.26701 126.95296,126.95296 0 0 0 0.60749,0.26323 126.95296,126.95296 0 0 0 0.60845,0.26035 126.95296,126.95296 0 0 0 0.61035,0.25748 126.95296,126.95296 0 0 0 0.6113,0.25369 126.95296,126.95296 0 0 0 0.6132,0.25081 126.95296,126.95296 0 0 0 0.61323,0.247 126.95296,126.95296 0 0 0 0.61607,0.2451 126.95296,126.95296 0 0 0 0.61607,0.24127 126.95296,126.95296 0 0 0 0.61797,0.23748 126.95296,126.95296 0 0 0 0.61894,0.23459 126.95296,126.95296 0 0 0 0.61989,0.23176 126.95296,126.95296 0 0 0 0.6218,0.22792 126.95296,126.95296 0 0 0 0.62275,0.22507 126.95296,126.95296 0 0 0 0.6237,0.2222 126.95296,126.95296 0 0 0 0.62465,0.21839 126.95296,126.95296 0 0 0 0.62658,0.21553 126.95296,126.95296 0 0 0 0.6275,0.21173 126.95296,126.95296 0 0 0 0.62752,0.20885 126.95296,126.95296 0 0 0 0.62941,0.20503 126.95296,126.95296 0 0 0 0.63039,0.20219 126.95296,126.95296 0 0 0 0.63228,0.19931 126.95296,126.95296 0 0 0 0.63231,0.1955 126.95296,126.95296 0 0 0 0.63323,0.19265 126.95296,126.95296 0 0 0 0.63514,0.18882 126.95296,126.95296 0 0 0 0.63515,0.18501 126.95296,126.95296 0 0 0 0.6361,0.18307 126.95296,126.95296 0 0 0 0.638,0.17827 126.95296,126.95296 0 0 0 0.63802,0.1755 126.95296,126.95296 0 0 0 0.63895,0.17256 126.95296,126.95296 0 0 0 0.63991,0.16886 126.95296,126.95296 0 0 0 0.64182,0.16591 126.95296,126.95296 0 0 0 0.64184,0.16222 126.95296,126.95296 0 0 0 0.64276,0.15925 126.95296,126.95296 0 0 0 0.64278,0.15539 126.95296,126.95296 0 0 0 0.64467,0.15262 126.95296,126.95296 0 0 0 0.6447,0.14875 126.95296,126.95296 0 0 0 0.64658,0.14597 126.95296,126.95296 0 0 0 0.6466,0.14211 126.95296,126.95296 0 0 0 0.64659,0.13823 126.95296,126.95296 0 0 0 0.64848,0.13546 126.95296,126.95296 0 0 0 0.64852,0.1325 126.95296,126.95296 0 0 0 0.64943,0.12881 126.95296,126.95296 0 0 0 0.65043,0.12494 126.95296,126.95296 0 0 0 0.6504,0.12199 126.95296,126.95296 0 0 0 0.65135,0.11829 126.95296,126.95296 0 0 0 0.20982,0.0373 h 44.36486 a 126.95296,126.95296 0 0 0 0.34428,-0.0611 126.95296,126.95296 0 0 0 0.65136,-0.11921 126.95296,126.95296 0 0 0 0.65134,-0.12309 126.95296,126.95296 0 0 0 0.64946,-0.12587 126.95296,126.95296 0 0 0 0.64946,-0.12973 126.95296,126.95296 0 0 0 0.6485,-0.13251 126.95296,126.95296 0 0 0 0.64753,-0.13638 126.95296,126.95296 0 0 0 0.64755,-0.13915 126.95296,126.95296 0 0 0 0.64659,-0.14302 126.95296,126.95296 0 0 0 0.64564,-0.14598 126.95296,126.95296 0 0 0 0.64468,-0.14966 126.95296,126.95296 0 0 0 0.64469,-0.15262 126.95296,126.95296 0 0 0 0.64276,-0.15632 126.95296,126.95296 0 0 0 0.64278,-0.16018 126.95296,126.95296 0 0 0 0.64181,-0.16223 126.95296,126.95296 0 0 0 0.64088,-0.16682 126.95296,126.95296 0 0 0 0.63992,-0.16978 126.95296,126.95296 0 0 0 0.63895,-0.17256 126.95296,126.95296 0 0 0 0.63802,-0.17642 126.95296,126.95296 0 0 0 0.63705,-0.18031 126.95296,126.95296 0 0 0 0.6361,-0.18307 126.95296,126.95296 0 0 0 0.6361,-0.18596 126.95296,126.95296 0 0 0 0.6342,-0.18979 126.95296,126.95296 0 0 0 0.63323,-0.19264 126.95296,126.95296 0 0 0 0.63228,-0.19646 126.95296,126.95296 0 0 0 0.63134,-0.19931 126.95296,126.95296 0 0 0 0.63037,-0.20313 126.95296,126.95296 0 0 0 0.62848,-0.206 126.95296,126.95296 0 0 0 0.62847,-0.20981 126.95296,126.95296 0 0 0 0.62655,-0.21266 126.95296,126.95296 0 0 0 0.62658,-0.21554 126.95296,126.95296 0 0 0 0.62465,-0.21934 126.95296,126.95296 0 0 0 0.6237,-0.22221 126.95296,126.95296 0 0 0 0.62179,-0.22601 126.95296,126.95296 0 0 0 0.62179,-0.22889 126.95296,126.95296 0 0 0 0.6199,-0.23174 126.95296,126.95296 0 0 0 0.61893,-0.23556 126.95296,126.95296 0 0 0 0.61702,-0.23841 126.95296,126.95296 0 0 0 0.61607,-0.24224 126.95296,126.95296 0 0 0 0.61513,-0.24509 126.95296,126.95296 0 0 0 0.61415,-0.24796 126.95296,126.95296 0 0 0 0.61228,-0.25176 126.95296,126.95296 0 0 0 0.61129,-0.25464 126.95296,126.95296 0 0 0 0.60941,-0.2575 126.95296,126.95296 0 0 0 0.60843,-0.2613 126.95296,126.95296 0 0 0 0.60749,-0.26416 126.95296,126.95296 0 0 0 0.60558,-0.26703 126.95296,126.95296 0 0 0 0.60463,-0.27085 126.95296,126.95296 0 0 0 0.60273,-0.2737 126.95296,126.95296 0 0 0 0.60081,-0.27657 126.95296,126.95296 0 0 0 0.60081,-0.28038 126.95296,126.95296 0 0 0 0.59795,-0.28228 126.95296,126.95296 0 0 0 0.59702,-0.2861 126.95296,126.95296 0 0 0 0.59604,-0.28993 126.95296,126.95296 0 0 0 0.59318,-0.29182 126.95296,126.95296 0 0 0 0.59317,-0.29562 126.95296,126.95296 0 0 0 0.59033,-0.29852 126.95296,126.95296 0 0 0 0.58938,-0.30135 126.95296,126.95296 0 0 0 0.5884,-0.30518 126.95296,126.95296 0 0 0 0.58557,-0.30804 126.95296,126.95296 0 0 0 0.58459,-0.31088 126.95296,126.95296 0 0 0 0.58366,-0.31378 126.95296,126.95296 0 0 0 0.58079,-0.3166 126.95296,126.95296 0 0 0 0.57982,-0.31949 126.95296,126.95296 0 0 0 0.57793,-0.32329 126.95296,126.95296 0 0 0 0.57602,-0.32617 126.95296,126.95296 0 0 0 0.57507,-0.329 126.95296,126.95296 0 0 0 0.57221,-0.33188 126.95296,126.95296 0 0 0 0.57125,-0.33475 126.95296,126.95296 0 0 0 0.56934,-0.33759 126.95296,126.95296 0 0 0 0.56743,-0.34143 126.95296,126.95296 0 0 0 0.56649,-0.34331 126.95296,126.95296 0 0 0 0.56362,-0.34714 126.95296,126.95296 0 0 0 0.5617,-0.34999 126.95296,126.95296 0 0 0 0.56077,-0.35191 126.95296,126.95296 0 0 0 0.55883,-0.35572 126.95296,126.95296 0 0 0 0.556,-0.35859 126.95296,126.95296 0 0 0 0.55504,-0.36144 126.95296,126.95296 0 0 0 0.55313,-0.3643 126.95296,126.95296 0 0 0 0.55028,-0.36717 126.95296,126.95296 0 0 0 0.54929,-0.37001 126.95296,126.95296 0 0 0 0.54743,-0.3729 126.95296,126.95296 0 0 0 0.54455,-0.37575 126.95296,126.95296 0 0 0 0.54359,-0.3786 126.95296,126.95296 0 0 0 0.54072,-0.38052 126.95296,126.95296 0 0 0 0.53979,-0.38432 126.95296,126.95296 0 0 0 0.53693,-0.3872 126.95296,126.95296 0 0 0 0.53499,-0.39006 126.95296,126.95296 0 0 0 0.5331,-0.39195 126.95296,126.95296 0 0 0 0.5312,-0.39577 126.95296,126.95296 0 0 0 0.52931,-0.39768 126.95296,126.95296 0 0 0 0.52642,-0.4015 126.95296,126.95296 0 0 0 0.52547,-0.4034 126.95296,126.95296 0 0 0 0.52261,-0.40627 126.95296,126.95296 0 0 0 0.52071,-0.40913 126.95296,126.95296 0 0 0 0.51784,-0.41199 126.95296,126.95296 0 0 0 0.51689,-0.41389 126.95296,126.95296 0 0 0 0.51402,-0.41771 126.95296,126.95296 0 0 0 0.51212,-0.41961 126.95296,126.95296 0 0 0 0.50927,-0.42248 126.95296,126.95296 0 0 0 0.50736,-0.42534 126.95296,126.95296 0 0 0 0.50545,-0.42725 126.95296,126.95296 0 0 0 0.50353,-0.4301 126.95296,126.95296 0 0 0 0.50067,-0.43393 126.95296,126.95296 0 0 0 0.49878,-0.43486 126.95296,126.95296 0 0 0 0.49592,-0.43871 126.95296,126.95296 0 0 0 0.494,-0.44059 126.95296,126.95296 0 0 0 0.49113,-0.44344 126.95296,126.95296 0 0 0 0.49019,-0.44633 126.95296,126.95296 0 0 0 0.48638,-0.44823 126.95296,126.95296 0 0 0 0.48541,-0.45109 126.95296,126.95296 0 0 0 0.48161,-0.45298 126.95296,126.95296 0 0 0 0.48066,-0.45587 126.95296,126.95296 0 0 0 0.47683,-0.45871 126.95296,126.95296 0 0 0 0.4759,-0.46157 126.95296,126.95296 0 0 0 0.47207,-0.46349 126.95296,126.95296 0 0 0 0.47015,-0.4654 126.95296,126.95296 0 0 0 0.46825,-0.46824 126.95296,126.95296 0 0 0 0.46538,-0.47111 126.95296,126.95296 0 0 0 0.4635,-0.47303 126.95296,126.95296 0 0 0 0.45966,-0.4759 126.95296,126.95296 0 0 0 0.45871,-0.47777 126.95296,126.95296 0 0 0 0.45491,-0.48065 126.95296,126.95296 0 0 0 0.45299,-0.48258 126.95296,126.95296 0 0 0 0.45109,-0.48541 126.95296,126.95296 0 0 0 0.44823,-0.48734 126.95296,126.95296 0 0 0 0.44536,-0.49017 126.95296,126.95296 0 0 0 0.44251,-0.49209 126.95296,126.95296 0 0 0 0.44061,-0.49496 126.95296,126.95296 0 0 0 0.43773,-0.49592 126.95296,126.95296 0 0 0 0.43488,-0.49973 126.95296,126.95296 0 0 0 0.43201,-0.50068 126.95296,126.95296 0 0 0 0.43011,-0.50353 126.95296,126.95296 0 0 0 0.42724,-0.5064 126.95296,126.95296 0 0 0 0.42438,-0.50735 126.95296,126.95296 0 0 0 0.42249,-0.51022 126.95296,126.95296 0 0 0 0.41866,-0.51308 126.95296,126.95296 0 0 0 0.41674,-0.51402 126.95296,126.95296 0 0 0 0.4139,-0.5169 126.95296,126.95296 0 0 0 0.41102,-0.51879 126.95296,126.95296 0 0 0 0.40914,-0.5207 126.95296,126.95296 0 0 0 0.4053,-0.52356 126.95296,126.95296 0 0 0 0.4034,-0.52548 126.95296,126.95296 0 0 0 0.3996,-0.52738 126.95296,126.95296 0 0 0 0.39769,-0.5293 126.95296,126.95296 0 0 0 0.39482,-0.5312 126.95296,126.95296 0 0 0 0.39196,-0.53404 126.95296,126.95296 0 0 0 0.3891,-0.53502 126.95296,126.95296 0 0 0 0.38623,-0.53786 126.95296,126.95296 0 0 0 0.38433,-0.53978 126.95296,126.95296 0 0 0 0.38051,-0.54169 126.95296,126.95296 0 0 0 0.37766,-0.5436 126.95296,126.95296 0 0 0 0.37574,-0.5455 126.95296,126.95296 0 0 0 0.37192,-0.5474 126.95296,126.95296 0 0 0 0.36908,-0.54933 126.95296,126.95296 0 0 0 0.36717,-0.55122 126.95296,126.95296 0 0 0 0.36333,-0.55313 126.95296,126.95296 0 0 0 0.3605,-0.55504 126.95296,126.95296 0 0 0 0.35763,-0.55694 126.95296,126.95296 0 0 0 0.35572,-0.55885 126.95296,126.95296 0 0 0 0.35191,-0.56077 126.95296,126.95296 0 0 0 0.34904,-0.56266 126.95296,126.95296 0 0 0 0.34619,-0.56459 126.95296,126.95296 0 0 0 0.34331,-0.56646 126.95296,126.95296 0 0 0 0.33951,-0.56744 126.95296,126.95296 0 0 0 0.33759,-0.5703 126.95296,126.95296 0 0 0 0.33475,-0.57124 126.95296,126.95296 0 0 0 0.33093,-0.57317 126.95296,126.95296 0 0 0 0.32805,-0.57506 126.95296,126.95296 0 0 0 0.32522,-0.57601 126.95296,126.95296 0 0 0 0.32234,-0.57889 126.95296,126.95296 0 0 0 0.31947,-0.57983 126.95296,126.95296 0 0 0 0.31663,-0.58175 126.95296,126.95296 0 0 0 0.31281,-0.58268 126.95296,126.95296 0 0 0 0.31088,-0.58555 126.95296,126.95296 0 0 0 0.30709,-0.58652 126.95296,126.95296 0 0 0 0.30326,-0.58746 126.95296,126.95296 0 0 0 0.30137,-0.59032 126.95296,126.95296 0 0 0 0.29755,-0.59128 126.95296,126.95296 0 0 0 0.29564,-0.59222 126.95296,126.95296 0 0 0 0.29087,-0.59416 126.95296,126.95296 0 0 0 0.28896,-0.59603 126.95296,126.95296 0 0 0 0.2861,-0.59797 126.95296,126.95296 0 0 0 0.28229,-0.59795 126.95296,126.95296 0 0 0 0.27846,-0.60081 126.95296,126.95296 0 0 0 0.27658,-0.60177 126.95296,126.95296 0 0 0 0.27274,-0.60271 126.95296,126.95296 0 0 0 0.2699,-0.60464 126.95296,126.95296 0 0 0 0.26702,-0.60653 126.95296,126.95296 0 0 0 0.26322,-0.60749 126.95296,126.95296 0 0 0 0.26035,-0.60845 126.95296,126.95296 0 0 0 0.2575,-0.61035 126.95296,126.95296 0 0 0 0.25367,-0.61129 126.95296,126.95296 0 0 0 0.25081,-0.61227 126.95296,126.95296 0 0 0 0.24797,-0.61415 126.95296,126.95296 0 0 0 0.24413,-0.61514 126.95296,126.95296 0 0 0 0.24127,-0.61701 126.95296,126.95296 0 0 0 0.23843,-0.61704 126.95296,126.95296 0 0 0 0.23461,-0.61987 126.95296,126.95296 0 0 0 0.23077,-0.6199 126.95296,126.95296 0 0 0 0.22888,-0.62179 126.95296,126.95296 0 0 0 0.22507,-0.62275 126.95296,126.95296 0 0 0 0.22126,-0.6237 126.95296,126.95296 0 0 0 0.21839,-0.62465 126.95296,126.95296 0 0 0 0.21553,-0.62562 126.95296,126.95296 0 0 0 0.21171,-0.62751 126.95296,126.95296 0 0 0 0.20885,-0.62848 126.95296,126.95296 0 0 0 0.206,-0.62942 126.95296,126.95296 0 0 0 0.20219,-0.63039 126.95296,126.95296 0 0 0 0.19836,-0.63131 126.95296,126.95296 0 0 0 0.1955,-0.6323 126.95296,126.95296 0 0 0 0.19265,-0.6342 126.95296,126.95296 0 0 0 0.18883,-0.63417 126.95296,126.95296 0 0 0 0.18597,-0.63516 126.95296,126.95296 0 0 0 0.18214,-0.63705 126.95296,126.95296 0 0 0 0.17938,-0.63706 126.95296,126.95296 0 0 0 0.17551,-0.63896 126.95296,126.95296 0 0 0 0.17255,-0.63895 126.95296,126.95296 0 0 0 0.16885,-0.63992 126.95296,126.95296 0 0 0 0.16499,-0.64086 126.95296,126.95296 0 0 0 0.16314,-0.64184 126.95296,126.95296 0 0 0 0.15834,-0.64277 126.95296,126.95296 0 0 0 0.15632,-0.64372 126.95296,126.95296 0 0 0 0.15169,-0.64374 126.95296,126.95296 0 0 0 0.14875,-0.64563 126.95296,126.95296 0 0 0 0.14597,-0.64564 126.95296,126.95296 0 0 0 0.1421,-0.64658 126.95296,126.95296 0 0 0 0.13915,-0.64756 126.95296,126.95296 0 0 0 0.13546,-0.6485 126.95296,126.95296 0 0 0 0.13158,-0.64847 126.95296,126.95296 0 0 0 0.12882,-0.64947 126.95296,126.95296 0 0 0 0.12494,-0.64945 126.95296,126.95296 0 0 0 0.12197,-0.65136 126.95296,126.95296 0 0 0 0.1183,-0.65137 126.95296,126.95296 0 0 0 0.0373,-0.2098 V 201.84016 165.18669 62.369314 H 250.18318 205.81833 Z" /><path
     id="rect1295"
     style="clip-rule:evenodd;display:inline;opacity:0.2;fill:url(#radialGradient1321);fill-opacity:1;fill-rule:evenodd;stroke:none;stroke-width:51.2694;stroke-linecap:square;stroke-linejoin:miter;stroke-miterlimit:4;stroke-dasharray:none;stroke-opacity:1;paint-order:normal;stop-color:#000000"
     d="m 103,62.369184 v 102.819316 36.65155 7.70855 a 126.95296,126.95296 0 0 0 0.062,0.34713 126.95296,126.95296 0 0 0 0.11921,0.65136 126.95296,126.95296 0 0 0 0.12199,0.65041 126.95296,126.95296 0 0 0 0.12586,0.6504 126.95296,126.95296 0 0 0 0.12974,0.64946 126.95296,126.95296 0 0 0 0.1325,0.64849 126.95296,126.95296 0 0 0 0.13638,0.64755 126.95296,126.95296 0 0 0 0.13933,0.64754 126.95296,126.95296 0 0 0 0.14303,0.64658 126.95296,126.95296 0 0 0 0.14597,0.64565 126.95296,126.95296 0 0 0 0.14967,0.64468 126.95296,126.95296 0 0 0 0.15355,0.64372 126.95296,126.95296 0 0 0 0.15631,0.64374 126.95296,126.95296 0 0 0 0.15926,0.64277 126.95296,126.95296 0 0 0 0.16314,0.64182 126.95296,126.95296 0 0 0 0.16591,0.64088 126.95296,126.95296 0 0 0 0.16978,0.63992 126.95296,126.95296 0 0 0 0.17366,0.63895 126.95296,126.95296 0 0 0 0.17643,0.638 126.95296,126.95296 0 0 0 0.17938,0.63705 126.95296,126.95296 0 0 0 0.18307,0.6361 126.95296,126.95296 0 0 0 0.18597,0.63515 126.95296,126.95296 0 0 0 0.18978,0.6342 126.95296,126.95296 0 0 0 0.19359,0.6342 126.95296,126.95296 0 0 0 0.19551,0.63228 126.95296,126.95296 0 0 0 0.20027,0.63037 126.95296,126.95296 0 0 0 0.20217,0.63038 126.95296,126.95296 0 0 0 0.206,0.62942 126.95296,126.95296 0 0 0 0.20981,0.62848 126.95296,126.95296 0 0 0 0.21267,0.62656 126.95296,126.95296 0 0 0 0.21553,0.62561 126.95296,126.95296 0 0 0 0.21933,0.62466 126.95296,126.95296 0 0 0 0.22222,0.62369 126.95296,126.95296 0 0 0 0.22601,0.62276 126.95296,126.95296 0 0 0 0.2289,0.62084 126.95296,126.95296 0 0 0 0.23269,0.61989 126.95296,126.95296 0 0 0 0.2346,0.61893 126.95296,126.95296 0 0 0 0.23937,0.61797 126.95296,126.95296 0 0 0 0.24128,0.61608 126.95296,126.95296 0 0 0 0.2451,0.61511 126.95296,126.95296 0 0 0 0.2489,0.61417 126.95296,126.95296 0 0 0 0.25081,0.61225 126.95296,126.95296 0 0 0 0.25464,0.61132 126.95296,126.95296 0 0 0 0.25844,0.60939 126.95296,126.95296 0 0 0 0.26036,0.60845 126.95296,126.95296 0 0 0 0.26416,0.60749 126.95296,126.95296 0 0 0 0.26798,0.60558 126.95296,126.95296 0 0 0 0.2699,0.60367 126.95296,126.95296 0 0 0 0.2737,0.60273 126.95296,126.95296 0 0 0 0.27656,0.60177 126.95296,126.95296 0 0 0 0.28039,0.59985 126.95296,126.95296 0 0 0 0.28324,0.59891 126.95296,126.95296 0 0 0 0.2861,0.59699 126.95296,126.95296 0 0 0 0.28897,0.59509 126.95296,126.95296 0 0 0 0.29276,0.59415 126.95296,126.95296 0 0 0 0.29565,0.59223 126.95296,126.95296 0 0 0 0.2985,0.59127 126.95296,126.95296 0 0 0 0.30137,0.58937 126.95296,126.95296 0 0 0 0.3042,0.58747 126.95296,126.95296 0 0 0 0.30805,0.58651 126.95296,126.95296 0 0 0 0.31089,0.58461 126.95296,126.95296 0 0 0 0.31376,0.58268 126.95296,126.95296 0 0 0 0.31663,0.58175 126.95296,126.95296 0 0 0 0.32043,0.57983 126.95296,126.95296 0 0 0 0.32233,0.57793 126.95296,126.95296 0 0 0 0.32617,0.576 126.95296,126.95296 0 0 0 0.32901,0.57413 126.95296,126.95296 0 0 0 0.33189,0.57315 126.95296,126.95296 0 0 0 0.33473,0.57124 126.95296,126.95296 0 0 0 0.33855,0.56935 126.95296,126.95296 0 0 0 0.34047,0.56745 126.95296,126.95296 0 0 0 0.34427,0.56552 126.95296,126.95296 0 0 0 0.34618,0.56457 126.95296,126.95296 0 0 0 0.35001,0.56172 126.95296,126.95296 0 0 0 0.35285,0.56075 126.95296,126.95296 0 0 0 0.35572,0.55791 126.95296,126.95296 0 0 0 0.35763,0.55694 126.95296,126.95296 0 0 0 0.36144,0.55504 126.95296,126.95296 0 0 0 0.36431,0.55217 126.95296,126.95296 0 0 0 0.36716,0.55122 126.95296,126.95296 0 0 0 0.37003,0.54932 126.95296,126.95296 0 0 0 0.37288,0.54646 126.95296,126.95296 0 0 0 0.37574,0.54551 126.95296,126.95296 0 0 0 0.37861,0.54357 126.95296,126.95296 0 0 0 0.38148,0.54075 126.95296,126.95296 0 0 0 0.38432,0.53976 126.95296,126.95296 0 0 0 0.38624,0.53693 126.95296,126.95296 0 0 0 0.39006,0.53501 126.95296,126.95296 0 0 0 0.3929,0.5331 126.95296,126.95296 0 0 0 0.39484,0.5312 126.95296,126.95296 0 0 0 0.39862,0.52929 126.95296,126.95296 0 0 0 0.40054,0.52643 126.95296,126.95296 0 0 0 0.40342,0.52453 126.95296,126.95296 0 0 0 0.40626,0.5226 126.95296,126.95296 0 0 0 0.40912,0.52071 126.95296,126.95296 0 0 0 0.41198,0.5188 126.95296,126.95296 0 0 0 0.41485,0.51594 126.95296,126.95296 0 0 0 0.41676,0.51402 126.95296,126.95296 0 0 0 0.41962,0.51211 126.95296,126.95296 0 0 0 0.42247,0.51022 126.95296,126.95296 0 0 0 0.42534,0.50735 126.95296,126.95296 0 0 0 0.42821,0.50546 126.95296,126.95296 0 0 0 0.4301,0.50258 126.95296,126.95296 0 0 0 0.43297,0.50068 126.95296,126.95296 0 0 0 0.43582,0.49877 126.95296,126.95296 0 0 0 0.43773,0.49686 126.95296,126.95296 0 0 0 0.44061,0.49401 126.95296,126.95296 0 0 0 0.44346,0.49114 126.95296,126.95296 0 0 0 0.44631,0.48923 126.95296,126.95296 0 0 0 0.44823,0.48734 126.95296,126.95296 0 0 0 0.45109,0.48447 126.95296,126.95296 0 0 0 0.45395,0.48255 126.95296,126.95296 0 0 0 0.45584,0.47969 126.95296,126.95296 0 0 0 0.45873,0.4778 126.95296,126.95296 0 0 0 0.46062,0.47492 126.95296,126.95296 0 0 0 0.46348,0.47302 126.95296,126.95296 0 0 0 0.46635,0.47017 126.95296,126.95296 0 0 0 0.46825,0.46825 126.95296,126.95296 0 0 0 0.47112,0.46539 126.95296,126.95296 0 0 0 0.47301,0.46253 126.95296,126.95296 0 0 0 0.47589,0.46063 126.95296,126.95296 0 0 0 0.47779,0.45775 126.95296,126.95296 0 0 0 0.48066,0.45587 126.95296,126.95296 0 0 0 0.48255,0.45299 126.95296,126.95296 0 0 0 0.48543,0.45013 126.95296,126.95296 0 0 0 0.48732,0.44822 126.95296,126.95296 0 0 0 0.48923,0.44537 126.95296,126.95296 0 0 0 0.49305,0.44347 126.95296,126.95296 0 0 0 0.494,0.43962 126.95296,126.95296 0 0 0 0.49687,0.43775 126.95296,126.95296 0 0 0 0.49876,0.43487 126.95296,126.95296 0 0 0 0.50164,0.43298 126.95296,126.95296 0 0 0 0.50355,0.4301 126.95296,126.95296 0 0 0 0.50544,0.42725 126.95296,126.95296 0 0 0 0.50831,0.42439 126.95296,126.95296 0 0 0 0.5102,0.42152 126.95296,126.95296 0 0 0 0.51214,0.41961 126.95296,126.95296 0 0 0 0.51498,0.41675 126.95296,126.95296 0 0 0 0.51593,0.41391 126.95296,126.95296 0 0 0 0.51977,0.41102 126.95296,126.95296 0 0 0 0.52069,0.40817 126.95296,126.95296 0 0 0 0.52262,0.40627 126.95296,126.95296 0 0 0 0.52546,0.40245 126.95296,126.95296 0 0 0 0.52738,0.40053 126.95296,126.95296 0 0 0 0.5293,0.39769 126.95296,126.95296 0 0 0 0.53214,0.39482 126.95296,126.95296 0 0 0 0.5331,0.39195 126.95296,126.95296 0 0 0 0.53597,0.38911 126.95296,126.95296 0 0 0 0.53692,0.38624 126.95296,126.95296 0 0 0 0.53978,0.38337 126.95296,126.95296 0 0 0 0.54168,0.38148 126.95296,126.95296 0 0 0 0.5436,0.37766 126.95296,126.95296 0 0 0 0.5455,0.3748 126.95296,126.95296 0 0 0 0.54741,0.37287 126.95296,126.95296 0 0 0 0.54932,0.36908 126.95296,126.95296 0 0 0 0.55219,0.36621 126.95296,126.95296 0 0 0 0.55312,0.36429 126.95296,126.95296 0 0 0 0.55504,0.36048 126.95296,126.95296 0 0 0 0.55692,0.35763 126.95296,126.95296 0 0 0 0.55887,0.35477 126.95296,126.95296 0 0 0 0.56077,0.3519 126.95296,126.95296 0 0 0 0.56266,0.34905 126.95296,126.95296 0 0 0 0.56361,0.3462 126.95296,126.95296 0 0 0 0.56648,0.34331 126.95296,126.95296 0 0 0 0.56839,0.34047 126.95296,126.95296 0 0 0 0.56934,0.3376 126.95296,126.95296 0 0 0 0.57128,0.33378 126.95296,126.95296 0 0 0 0.57314,0.33187 126.95296,126.95296 0 0 0 0.57506,0.32807 126.95296,126.95296 0 0 0 0.57698,0.32521 126.95296,126.95296 0 0 0 0.57792,0.32233 126.95296,126.95296 0 0 0 0.57983,0.31949 126.95296,126.95296 0 0 0 0.58175,0.31567 126.95296,126.95296 0 0 0 0.58365,0.31374 126.95296,126.95296 0 0 0 0.5846,0.30995 126.95296,126.95296 0 0 0 0.58652,0.30709 126.95296,126.95296 0 0 0 0.5884,0.30422 126.95296,126.95296 0 0 0 0.58937,0.30135 126.95296,126.95296 0 0 0 0.59127,0.29756 126.95296,126.95296 0 0 0 0.59319,0.29467 126.95296,126.95296 0 0 0 0.59415,0.29184 126.95296,126.95296 0 0 0 0.59603,0.28897 126.95296,126.95296 0 0 0 0.59701,0.28514 126.95296,126.95296 0 0 0 0.59891,0.28228 126.95296,126.95296 0 0 0 0.59985,0.27943 126.95296,126.95296 0 0 0 0.60177,0.27656 126.95296,126.95296 0 0 0 0.60368,0.27276 126.95296,126.95296 0 0 0 0.60462,0.26988 126.95296,126.95296 0 0 0 0.60558,0.26704 126.95296,126.95296 0 0 0 0.60749,0.2632 126.95296,126.95296 0 0 0 0.60845,0.26035 126.95296,126.95296 0 0 0 0.61036,0.2575 126.95296,126.95296 0 0 0 0.61129,0.25368 126.95296,126.95296 0 0 0 0.61321,0.2508 126.95296,126.95296 0 0 0 0.61321,0.24702 126.95296,126.95296 0 0 0 0.61607,0.24508 126.95296,126.95296 0 0 0 0.61608,0.24127 126.95296,126.95296 0 0 0 0.61799,0.23748 126.95296,126.95296 0 0 0 0.61893,0.23459 126.95296,126.95296 0 0 0 0.61988,0.23176 126.95296,126.95296 0 0 0 0.6218,0.22794 126.95296,126.95296 0 0 0 0.62274,0.22505 126.95296,126.95296 0 0 0 0.6237,0.22221 126.95296,126.95296 0 0 0 0.62466,0.21839 126.95296,126.95296 0 0 0 0.62657,0.21554 126.95296,126.95296 0 0 0 0.62752,0.21171 126.95296,126.95296 0 0 0 0.62751,0.20885 126.95296,126.95296 0 0 0 0.62944,0.20503 126.95296,126.95296 0 0 0 0.63035,0.20219 126.95296,126.95296 0 0 0 0.6323,0.19931 126.95296,126.95296 0 0 0 0.6323,0.19552 126.95296,126.95296 0 0 0 0.63323,0.19263 126.95296,126.95296 0 0 0 0.63514,0.18882 126.95296,126.95296 0 0 0 0.63516,0.18503 126.95296,126.95296 0 0 0 0.63609,0.18307 126.95296,126.95296 0 0 0 0.638,0.17827 126.95296,126.95296 0 0 0 0.63801,0.17551 126.95296,126.95296 0 0 0 0.63896,0.17255 126.95296,126.95296 0 0 0 0.63991,0.16886 126.95296,126.95296 0 0 0 0.64183,0.16591 126.95296,126.95296 0 0 0 0.64183,0.16222 126.95296,126.95296 0 0 0 0.64276,0.15926 126.95296,126.95296 0 0 0 0.64278,0.15538 126.95296,126.95296 0 0 0 0.64469,0.15262 126.95296,126.95296 0 0 0 0.64468,0.14875 126.95296,126.95296 0 0 0 0.64658,0.14597 126.95296,126.95296 0 0 0 0.6466,0.1421 126.95296,126.95296 0 0 0 0.64659,0.13823 126.95296,126.95296 0 0 0 0.6485,0.13546 126.95296,126.95296 0 0 0 0.6485,0.13251 126.95296,126.95296 0 0 0 0.64944,0.12881 126.95296,126.95296 0 0 0 0.65042,0.12494 126.95296,126.95296 0 0 0 0.6504,0.12198 126.95296,126.95296 0 0 0 0.65135,0.1183 126.95296,126.95296 0 0 0 0.20981,0.0373 h 44.36486 a 126.95296,126.95296 0 0 0 0.34427,-0.0611 126.95296,126.95296 0 0 0 0.65136,-0.11922 126.95296,126.95296 0 0 0 0.65136,-0.1231 126.95296,126.95296 0 0 0 0.64945,-0.12585 126.95296,126.95296 0 0 0 0.64945,-0.12975 126.95296,126.95296 0 0 0 0.6485,-0.1325 126.95296,126.95296 0 0 0 0.64755,-0.13637 126.95296,126.95296 0 0 0 0.64754,-0.13915 126.95296,126.95296 0 0 0 0.6466,-0.14303 126.95296,126.95296 0 0 0 0.64562,-0.14597 126.95296,126.95296 0 0 0 0.64469,-0.14968 126.95296,126.95296 0 0 0 0.64468,-0.15261 126.95296,126.95296 0 0 0 0.64278,-0.15631 126.95296,126.95296 0 0 0 0.64277,-0.16019 126.95296,126.95296 0 0 0 0.64182,-0.16204 126.95296,126.95296 0 0 0 0.64088,-0.16683 126.95296,126.95296 0 0 0 0.63992,-0.16978 126.95296,126.95296 0 0 0 0.63895,-0.17255 126.95296,126.95296 0 0 0 0.638,-0.17642 126.95296,126.95296 0 0 0 0.63705,-0.18031 126.95296,126.95296 0 0 0 0.6361,-0.18307 126.95296,126.95296 0 0 0 0.63612,-0.18597 126.95296,126.95296 0 0 0 0.63418,-0.18977 126.95296,126.95296 0 0 0 0.63323,-0.19265 126.95296,126.95296 0 0 0 0.6323,-0.19645 126.95296,126.95296 0 0 0 0.63133,-0.19933 126.95296,126.95296 0 0 0 0.63038,-0.20311 126.95296,126.95296 0 0 0 0.62847,-0.20601 126.95296,126.95296 0 0 0 0.62846,-0.20979 126.95296,126.95296 0 0 0 0.62657,-0.21267 126.95296,126.95296 0 0 0 0.62656,-0.21554 126.95296,126.95296 0 0 0 0.62466,-0.21935 126.95296,126.95296 0 0 0 0.6237,-0.2222 126.95296,126.95296 0 0 0 0.6218,-0.22602 126.95296,126.95296 0 0 0 0.6218,-0.22888 126.95296,126.95296 0 0 0 0.61987,-0.23173 126.95296,126.95296 0 0 0 0.61894,-0.23558 126.95296,126.95296 0 0 0 0.61702,-0.23842 126.95296,126.95296 0 0 0 0.61608,-0.24222 126.95296,126.95296 0 0 0 0.61514,-0.2451 126.95296,126.95296 0 0 0 0.61415,-0.24795 126.95296,126.95296 0 0 0 0.61225,-0.25177 126.95296,126.95296 0 0 0 0.61131,-0.25463 126.95296,126.95296 0 0 0 0.60939,-0.2575 126.95296,126.95296 0 0 0 0.60845,-0.26129 126.95296,126.95296 0 0 0 0.6075,-0.26418 126.95296,126.95296 0 0 0 0.60557,-0.26703 126.95296,126.95296 0 0 0 0.60463,-0.27083 126.95296,126.95296 0 0 0 0.60271,-0.27371 126.95296,126.95296 0 0 0 0.60083,-0.27658 126.95296,126.95296 0 0 0 0.60081,-0.28036 126.95296,126.95296 0 0 0 0.59795,-0.2823 126.95296,126.95296 0 0 0 0.597,-0.2861 126.95296,126.95296 0 0 0 0.59605,-0.28991 126.95296,126.95296 0 0 0 0.59318,-0.29183 126.95296,126.95296 0 0 0 0.59317,-0.29564 126.95296,126.95296 0 0 0 0.59033,-0.29849 126.95296,126.95296 0 0 0 0.58937,-0.30136 126.95296,126.95296 0 0 0 0.58843,-0.30519 126.95296,126.95296 0 0 0 0.58555,-0.30802 126.95296,126.95296 0 0 0 0.58461,-0.31091 126.95296,126.95296 0 0 0 0.58365,-0.31374 126.95296,126.95296 0 0 0 0.58078,-0.31663 126.95296,126.95296 0 0 0 0.57983,-0.31947 126.95296,126.95296 0 0 0 0.57793,-0.32331 126.95296,126.95296 0 0 0 0.576,-0.32615 126.95296,126.95296 0 0 0 0.57507,-0.32904 126.95296,126.95296 0 0 0 0.57221,-0.33186 126.95296,126.95296 0 0 0 0.57125,-0.33474 126.95296,126.95296 0 0 0 0.56934,-0.3376 126.95296,126.95296 0 0 0 0.56745,-0.34141 126.95296,126.95296 0 0 0 0.56647,-0.34332 126.95296,126.95296 0 0 0 0.56362,-0.34715 126.95296,126.95296 0 0 0 0.56172,-0.35 126.95296,126.95296 0 0 0 0.56075,-0.3519 126.95296,126.95296 0 0 0 0.55887,-0.35573 126.95296,126.95296 0 0 0 0.55598,-0.35857 126.95296,126.95296 0 0 0 0.55504,-0.36143 126.95296,126.95296 0 0 0 0.55313,-0.36432 126.95296,126.95296 0 0 0 0.55026,-0.36715 126.95296,126.95296 0 0 0 0.54932,-0.37003 126.95296,126.95296 0 0 0 0.54741,-0.37289 126.95296,126.95296 0 0 0 0.54454,-0.37576 126.95296,126.95296 0 0 0 0.5436,-0.37859 126.95296,126.95296 0 0 0 0.54074,-0.38051 126.95296,126.95296 0 0 0 0.53976,-0.38434 126.95296,126.95296 0 0 0 0.53693,-0.38718 126.95296,126.95296 0 0 0 0.53501,-0.39006 126.95296,126.95296 0 0 0 0.53311,-0.39197 126.95296,126.95296 0 0 0 0.5312,-0.39577 126.95296,126.95296 0 0 0 0.52928,-0.39768 126.95296,126.95296 0 0 0 0.52642,-0.4015 126.95296,126.95296 0 0 0 0.52547,-0.4034 126.95296,126.95296 0 0 0 0.52262,-0.40627 126.95296,126.95296 0 0 0 0.5207,-0.40912 126.95296,126.95296 0 0 0 0.51786,-0.41198 126.95296,126.95296 0 0 0 0.51688,-0.4139 126.95296,126.95296 0 0 0 0.51404,-0.4177 126.95296,126.95296 0 0 0 0.51212,-0.41963 126.95296,126.95296 0 0 0 0.50925,-0.42248 126.95296,126.95296 0 0 0 0.50736,-0.42532 126.95296,126.95296 0 0 0 0.50545,-0.42725 126.95296,126.95296 0 0 0 0.50354,-0.43011 126.95296,126.95296 0 0 0 0.50068,-0.43392 126.95296,126.95296 0 0 0 0.49877,-0.43488 126.95296,126.95296 0 0 0 0.4959,-0.43869 126.95296,126.95296 0 0 0 0.49401,-0.44059 126.95296,126.95296 0 0 0 0.49114,-0.44346 126.95296,126.95296 0 0 0 0.49019,-0.44632 126.95296,126.95296 0 0 0 0.48638,-0.44823 126.95296,126.95296 0 0 0 0.48541,-0.45108 126.95296,126.95296 0 0 0 0.48161,-0.45301 126.95296,126.95296 0 0 0 0.48066,-0.45585 126.95296,126.95296 0 0 0 0.47683,-0.45871 126.95296,126.95296 0 0 0 0.47588,-0.46159 126.95296,126.95296 0 0 0 0.47207,-0.46346 126.95296,126.95296 0 0 0 0.47016,-0.46542 126.95296,126.95296 0 0 0 0.46826,-0.46825 126.95296,126.95296 0 0 0 0.46538,-0.4711 126.95296,126.95296 0 0 0 0.46349,-0.47303 126.95296,126.95296 0 0 0 0.45967,-0.47589 126.95296,126.95296 0 0 0 0.45872,-0.47778 126.95296,126.95296 0 0 0 0.4549,-0.48065 126.95296,126.95296 0 0 0 0.453,-0.48256 126.95296,126.95296 0 0 0 0.45108,-0.48542 126.95296,126.95296 0 0 0 0.44823,-0.48733 126.95296,126.95296 0 0 0 0.44536,-0.49017 126.95296,126.95296 0 0 0 0.44251,-0.4921 126.95296,126.95296 0 0 0 0.44059,-0.49497 126.95296,126.95296 0 0 0 0.43774,-0.4959 126.95296,126.95296 0 0 0 0.43487,-0.49973 126.95296,126.95296 0 0 0 0.43201,-0.50067 126.95296,126.95296 0 0 0 0.43012,-0.50355 126.95296,126.95296 0 0 0 0.42725,-0.50639 126.95296,126.95296 0 0 0 0.42438,-0.50737 126.95296,126.95296 0 0 0 0.42247,-0.5102 126.95296,126.95296 0 0 0 0.41866,-0.51309 126.95296,126.95296 0 0 0 0.41676,-0.51403 126.95296,126.95296 0 0 0 0.41388,-0.51688 126.95296,126.95296 0 0 0 0.41104,-0.5188 126.95296,126.95296 0 0 0 0.40912,-0.52072 126.95296,126.95296 0 0 0 0.40533,-0.52355 126.95296,126.95296 0 0 0 0.4034,-0.52548 126.95296,126.95296 0 0 0 0.39957,-0.52738 126.95296,126.95296 0 0 0 0.39769,-0.52929 126.95296,126.95296 0 0 0 0.39482,-0.5312 126.95296,126.95296 0 0 0 0.39195,-0.53406 126.95296,126.95296 0 0 0 0.3891,-0.535 126.95296,126.95296 0 0 0 0.38624,-0.53788 126.95296,126.95296 0 0 0 0.38434,-0.53976 126.95296,126.95296 0 0 0 0.38051,-0.5417 126.95296,126.95296 0 0 0 0.37766,-0.54358 126.95296,126.95296 0 0 0 0.37573,-0.5455 126.95296,126.95296 0 0 0 0.37194,-0.54741 126.95296,126.95296 0 0 0 0.36908,-0.54933 126.95296,126.95296 0 0 0 0.36715,-0.55122 126.95296,126.95296 0 0 0 0.36336,-0.55312 126.95296,126.95296 0 0 0 0.36049,-0.55504 126.95296,126.95296 0 0 0 0.35762,-0.55695 126.95296,126.95296 0 0 0 0.35573,-0.55886 126.95296,126.95296 0 0 0 0.35189,-0.56075 126.95296,126.95296 0 0 0 0.34906,-0.56267 126.95296,126.95296 0 0 0 0.34617,-0.56458 126.95296,126.95296 0 0 0 0.34333,-0.56649 126.95296,126.95296 0 0 0 0.33951,-0.56743 126.95296,126.95296 0 0 0 0.3376,-0.5703 126.95296,126.95296 0 0 0 0.33474,-0.57125 126.95296,126.95296 0 0 0 0.33091,-0.57314 126.95296,126.95296 0 0 0 0.32808,-0.57507 126.95296,126.95296 0 0 0 0.32522,-0.57602 126.95296,126.95296 0 0 0 0.32232,-0.57887 126.95296,126.95296 0 0 0 0.31948,-0.57985 126.95296,126.95296 0 0 0 0.31662,-0.58172 126.95296,126.95296 0 0 0 0.31281,-0.5827 126.95296,126.95296 0 0 0 0.3109,-0.58556 126.95296,126.95296 0 0 0 0.30709,-0.58652 126.95296,126.95296 0 0 0 0.30327,-0.58747 126.95296,126.95296 0 0 0 0.30136,-0.59031 126.95296,126.95296 0 0 0 0.29755,-0.59128 126.95296,126.95296 0 0 0 0.29562,-0.59224 126.95296,126.95296 0 0 0 0.29086,-0.59413 126.95296,126.95296 0 0 0 0.28898,-0.59605 126.95296,126.95296 0 0 0 0.2861,-0.59794 126.95296,126.95296 0 0 0 0.28229,-0.59796 126.95296,126.95296 0 0 0 0.27846,-0.6008 126.95296,126.95296 0 0 0 0.27656,-0.60177 126.95296,126.95296 0 0 0 0.27276,-0.60273 126.95296,126.95296 0 0 0 0.26988,-0.60464 126.95296,126.95296 0 0 0 0.26704,-0.60653 126.95296,126.95296 0 0 0 0.2632,-0.60749 126.95296,126.95296 0 0 0 0.26036,-0.60844 126.95296,126.95296 0 0 0 0.25749,-0.61035 126.95296,126.95296 0 0 0 0.25367,-0.61131 126.95296,126.95296 0 0 0 0.25083,-0.61225 126.95296,126.95296 0 0 0 0.24795,-0.61416 126.95296,126.95296 0 0 0 0.24415,-0.61513 126.95296,126.95296 0 0 0 0.24128,-0.61703 126.95296,126.95296 0 0 0 0.23841,-0.61702 126.95296,126.95296 0 0 0 0.2346,-0.61989 126.95296,126.95296 0 0 0 0.23079,-0.61987 126.95296,126.95296 0 0 0 0.22888,-0.6218 126.95296,126.95296 0 0 0 0.22508,-0.62275 126.95296,126.95296 0 0 0 0.22125,-0.62371 126.95296,126.95296 0 0 0 0.21839,-0.62465 126.95296,126.95296 0 0 0 0.21553,-0.6256 126.95296,126.95296 0 0 0 0.21172,-0.62753 126.95296,126.95296 0 0 0 0.20885,-0.62846 126.95296,126.95296 0 0 0 0.20599,-0.62944 126.95296,126.95296 0 0 0 0.20217,-0.63037 126.95296,126.95296 0 0 0 0.19837,-0.63134 126.95296,126.95296 0 0 0 0.19552,-0.63228 126.95296,126.95296 0 0 0 0.19263,-0.63419 126.95296,126.95296 0 0 0 0.18883,-0.6342 126.95296,126.95296 0 0 0 0.18597,-0.63513 126.95296,126.95296 0 0 0 0.18214,-0.63706 126.95296,126.95296 0 0 0 0.17937,-0.63705 126.95296,126.95296 0 0 0 0.17551,-0.63896 126.95296,126.95296 0 0 0 0.17255,-0.63896 126.95296,126.95296 0 0 0 0.16885,-0.63992 126.95296,126.95296 0 0 0 0.16499,-0.64087 126.95296,126.95296 0 0 0 0.16314,-0.64182 126.95296,126.95296 0 0 0 0.15834,-0.64278 126.95296,126.95296 0 0 0 0.15632,-0.64373 126.95296,126.95296 0 0 0 0.15169,-0.64372 126.95296,126.95296 0 0 0 0.14875,-0.64564 126.95296,126.95296 0 0 0 0.14597,-0.64564 126.95296,126.95296 0 0 0 0.1421,-0.64659 126.95296,126.95296 0 0 0 0.13915,-0.64755 126.95296,126.95296 0 0 0 0.13546,-0.64849 126.95296,126.95296 0 0 0 0.13158,-0.64851 126.95296,126.95296 0 0 0 0.12882,-0.64945 126.95296,126.95296 0 0 0 0.12494,-0.64944 126.95296,126.95296 0 0 0 0.12197,-0.65136 126.95296,126.95296 0 0 0 0.1183,-0.65135 A 126.95296,126.95296 0 0 0 353,209.5518 V 201.84005 165.18658 62.369184 H 250.18325 205.81838 Z" /><path
     id="rect1126-9"
     style="clip-rule:evenodd;display:inline;fill:url(#linearGradient1332);fill-opacity:1;fill-rule:evenodd;stroke:none;stroke-width:9.76564;stroke-linecap:round;stroke-linejoin:round;stroke-miterlimit:2;paint-order:stroke fill markers;stop-color:#000000"
     d="m 227.99984,87.654894 a 53.710862,53.710862 0 0 0 -53.71086,53.710846 53.710862,53.710862 0 0 0 19.25274,41.19963 l -17.80889,72.75285 H 280.2678 l -17.80891,-72.7519 a 53.710862,53.710862 0 0 0 19.2518,-41.20058 53.710862,53.710862 0 0 0 -53.71085,-53.710846 z" /><path
     id="path1165-9"
     style="color:#000000;font-style:normal;font-variant:normal;font-weight:normal;font-stretch:normal;font-size:medium;line-height:normal;font-family:sans-serif;font-variant-ligatures:normal;font-variant-position:normal;font-variant-caps:normal;font-variant-numeric:normal;font-variant-alternates:normal;font-variant-east-asian:normal;font-feature-settings:normal;font-variation-settings:normal;text-indent:0;text-align:start;text-decoration:none;text-decoration-line:none;text-decoration-style:solid;text-decoration-color:#000000;letter-spacing:normal;word-spacing:normal;text-transform:none;writing-mode:lr-tb;direction:ltr;text-orientation:mixed;dominant-baseline:auto;baseline-shift:baseline;text-anchor:start;white-space:normal;shape-padding:0;shape-margin:0;inline-size:0;clip-rule:nonzero;display:inline;overflow:visible;visibility:visible;isolation:auto;mix-blend-mode:normal;color-interpolation:sRGB;color-interpolation-filters:linearRGB;solid-color:#000000;solid-opacity:1;vector-effect:none;fill:#000000;fill-opacity:1;fill-rule:nonzero;stroke:none;stroke-width:51.2694;stroke-linecap:square;stroke-linejoin:miter;stroke-miterlimit:4;stroke-dasharray:none;stroke-dashoffset:0;stroke-opacity:1;paint-order:normal;color-rendering:auto;image-rendering:auto;shape-rendering:auto;text-rendering:auto;enable-background:accumulate;stop-color:#000000"
     d="m 228.00078,113.29033 c -15.80964,0 -28.07801,12.2655 -28.07801,28.07516 2e-5,8.33177 3.67202,16.19065 10.06314,21.53585 l 12.25184,10.24817 -13.8378,56.53562 h 39.20168 l -13.84066,-56.53562 12.25088,-10.24817 c 6.39108,-5.34542 10.06437,-13.20399 10.06412,-21.53585 0,-15.80966 -12.26553,-28.07516 -28.07519,-28.07516 z" /></g><text
   xml:space="preserve"
   style="font-size:53.3333px;font-family:'Zilla Slab Highlight';-inkscape-font-specification:'Zilla Slab Highlight';text-align:center;text-anchor:middle;fill:#ffffff;stroke-width:1.54241;stroke-linecap:round;stroke-linejoin:round;stroke-opacity:0.5"
   x="227.41406"
   y="316.6196"
   id="text1"><tspan
     sodipodi:role="line"
     id="tspan1"
     x="227.41406"
     y="316.6196"
     style="font-style:normal;font-variant:normal;font-weight:bold;font-stretch:normal;font-size:53.3333px;font-family:Roboto;-inkscape-font-specification:'Roboto Bold';fill:#ffffff;stroke-width:1.54241">QDCrypt</tspan></text><g
   id="g10"
   transform="translate(45.324076,-192.94133)"><g
     transform="matrix(1.5657514,0,0,1.5657514,57.738151,333.56762)"
     style="fill:#ffffff;stroke:none"
     id="g10282"><path
       id="path10270"
       style="font-style:normal;font-variant:normal;font-weight:normal;font-stretch:normal;font-size:medium;line-height:1.25;font-family:'Luckiest Guy';-inkscape-font-specification:'Luckiest Guy';text-align:center;letter-spacing:0px;word-spacing:0px;text-anchor:middle;fill:#ffffff;fill-opacity:1;stroke:none;stroke-width:0.877849"
       d="m 43.404847,136.75534 0.960147,7.23539 q 0.497213,-0.13716 0.994436,-0.18859 0.497213,-0.0515 0.994435,-0.0515 1.268764,0 2.417517,0.34292 1.148744,0.32576 2.040314,1.01158 0.874416,0.68582 1.405927,1.71455 0.514367,1.02873 0.514367,2.41751 0,0.89157 -0.274328,1.5431 -0.291481,0.65152 -0.805839,1.08016 -0.514366,0.42864 -1.21733,0.63438 -0.702964,0.20575 -1.543091,0.20575 -0.634387,0 -1.320206,-0.13716 -0.685819,-0.13716 -1.354494,-0.36006 -0.668675,-0.22289 -1.303053,-0.51437 -0.634386,-0.29147 -1.165897,-0.60008 l 0.685819,8.05838 q 0.668675,0.3429 1.45737,0.61723 0.771541,0.25718 1.594524,0.46292 0.822983,0.18861 1.645967,0.29148 0.822983,0.10287 1.577389,0.10287 2.177477,0 4.063474,-0.80584 1.886005,-0.80583 3.274788,-2.21176 1.388784,-1.40593 2.194622,-3.30908 0.788695,-1.9203 0.788695,-4.13206 0,-2.93188 -0.840128,-5.52085 -0.840127,-2.60611 -2.468949,-4.56069 -1.628823,-1.95459 -4.029186,-3.08619 -2.417516,-1.1316 -5.555141,-1.1316 -1.183042,0 -2.417517,0.18859 -1.251619,0.18861 -2.314632,0.70297 z" /><path
       id="path10272"
       style="font-style:normal;font-variant:normal;font-weight:normal;font-stretch:normal;font-size:medium;line-height:1.25;font-family:'Luckiest Guy';-inkscape-font-specification:'Luckiest Guy';text-align:center;letter-spacing:0px;word-spacing:0px;text-anchor:middle;fill:#ffffff;fill-opacity:1;stroke:none;stroke-width:0.877849"
       d="m 61.446435,144.33365 q 0,1.33734 0.240039,2.43465 0.222886,1.08017 0.720108,1.98888 0.497223,0.9087 1.285908,1.68025 0.788695,0.77156 1.90315,1.47452 l -4.080627,7.26968 7.715474,1.50881 2.640403,-7.30398 2.126035,0.0686 0.308626,7.13252 h 7.372551 q -0.08568,-3.90916 -0.154308,-7.78405 -0.08568,-3.87488 -0.188597,-7.78404 -0.03432,-1.97174 -0.06856,-3.90918 -0.03432,-1.93743 -0.137164,-3.90916 -1.200177,-0.44579 -2.366074,-0.73726 -1.165889,-0.29148 -2.331786,-0.44578 -1.183033,-0.17146 -2.383219,-0.2229 -1.217331,-0.0686 -2.486094,-0.0686 -1.954592,0 -3.772011,0.54866 -1.834564,0.53151 -3.240491,1.61167 -1.405937,1.08016 -2.246064,2.69184 -0.857272,1.61168 -0.857272,3.75487 z m 7.681177,0.54865 q 0,-0.72011 0.205742,-1.3202 0.188605,-0.60009 0.582953,-1.02874 0.377194,-0.44578 0.960147,-0.68582 0.5658,-0.25717 1.337341,-0.25717 0.342914,0 0.668675,0.0514 0.32577,0.0343 0.634386,0.12002 l 0.274328,6.37812 h -0.411492 q -0.737252,0 -1.491658,-0.1886 -0.77155,-0.1886 -1.371639,-0.58294 -0.617233,-0.39435 -0.994436,-1.01159 -0.394347,-0.61724 -0.394347,-1.47451 z" /><path
       id="path10274"
       style="font-style:normal;font-variant:normal;font-weight:normal;font-stretch:normal;font-size:medium;line-height:1.25;font-family:'Luckiest Guy';-inkscape-font-specification:'Luckiest Guy';text-align:center;letter-spacing:0px;word-spacing:0px;text-anchor:middle;fill:#ffffff;fill-opacity:1;stroke:none;stroke-width:0.877849"
       d="m 104.39134,148.75718 q 0,1.56024 -0.36006,3.0176 -0.36006,1.44022 -1.04588,2.70899 -0.66867,1.26877 -1.64597,2.33179 -0.96014,1.04587 -2.177473,1.80027 -1.200177,0.7544 -2.623258,1.18304 -1.423072,0.41149 -3.017605,0.41149 -1.543091,0 -2.949019,-0.39435 -1.388783,-0.39434 -2.606113,-1.09731 -1.217331,-0.72011 -2.211767,-1.71454 -0.977291,-1.01158 -1.680264,-2.22891 -0.685819,-1.23448 -1.080158,-2.64042 -0.377203,-1.40592 -0.377203,-2.93187 0,-1.49166 0.36005,-2.91473 0.360059,-1.44023 1.028734,-2.70899 0.685819,-1.26876 1.645966,-2.33178 0.960147,-1.06303 2.143189,-1.83457 1.200177,-0.77155 2.58896,-1.20018 1.388792,-0.42864 2.931884,-0.42864 2.486094,0 4.526407,0.77154 2.057459,0.77155 3.49767,2.21178 1.45737,1.42307 2.24607,3.46338 0.80584,2.02317 0.80584,4.52641 z m -7.612602,0.44578 q 0,-0.73725 -0.222894,-1.42307 -0.205742,-0.70297 -0.617233,-1.23448 -0.411492,-0.54865 -1.028734,-0.87442 -0.600088,-0.34291 -1.388783,-0.34291 -0.805839,0 -1.440216,0.29147 -0.634386,0.29148 -1.097311,0.80584 -0.445781,0.49722 -0.68582,1.18304 -0.240039,0.66867 -0.240039,1.42308 0,0.72011 0.205751,1.44021 0.205741,0.72012 0.617233,1.30306 0.411491,0.58295 1.01158,0.94301 0.617242,0.36005 1.423081,0.36005 0.805838,0 1.440216,-0.30862 0.651531,-0.32576 1.097311,-0.85727 0.445789,-0.54866 0.685819,-1.25162 0.240039,-0.70296 0.240039,-1.45737 z" /><path
       id="path10276"
       style="font-style:normal;font-variant:normal;font-weight:normal;font-stretch:normal;font-size:medium;line-height:1.25;font-family:'Luckiest Guy';-inkscape-font-specification:'Luckiest Guy';text-align:center;letter-spacing:0px;word-spacing:0px;text-anchor:middle;fill:#ffffff;fill-opacity:1;stroke:none;stroke-width:0.877849"
       d="m 104.72465,154.7581 q 0,1.42307 0.53151,2.4518 0.51437,1.02873 1.38878,1.74884 0.87442,0.72011 2.02317,1.18304 1.1316,0.44578 2.36608,0.70296 1.23447,0.25719 2.48609,0.34291 1.23448,0.0858 2.31464,0.0858 1.06302,0 2.21177,-0.0858 1.1316,-0.0686 2.26321,-0.25717 1.1316,-0.18861 2.22891,-0.49723 1.09731,-0.32576 2.0746,-0.80584 l 0.0343,-22.08338 q -0.96014,-0.39435 -2.04031,-0.70296 -1.08017,-0.32576 -2.19462,-0.53151 -1.1316,-0.2229 -2.24606,-0.32576 -1.11445,-0.12002 -2.16033,-0.12002 -1.21733,0 -2.45181,0.1543 -1.25161,0.15431 -2.40036,0.51437 -1.14875,0.36005 -2.14319,0.943 -0.99443,0.5658 -1.73169,1.40593 -0.7544,0.84013 -1.16589,1.95458 -0.42864,1.11446 -0.42864,2.57183 0,0.96015 0.27433,1.80027 0.27433,0.84013 0.78869,1.50881 0.51436,0.66867 1.25162,1.14874 0.73725,0.46293 1.66311,0.68582 -1.11445,0.29147 -2.02317,0.85728 -0.92585,0.5658 -1.56023,1.37164 -0.65153,0.80583 -0.99444,1.81742 -0.36006,1.01158 -0.36006,2.16033 z m 8.7099,-9.77293 q 0,-0.49721 0.20575,-0.84013 0.20574,-0.36005 0.51437,-0.58294 0.29147,-0.2229 0.65152,-0.32576 0.34291,-0.10288 0.61724,-0.10288 0.34291,0 0.66868,0.10288 0.32576,0.10286 0.63437,0.24003 l 0.10288,3.8063 q -0.39435,0 -0.97729,-0.0686 -0.58295,-0.0686 -1.11446,-0.29149 -0.54865,-0.24003 -0.92586,-0.68581 -0.3772,-0.46293 -0.3772,-1.25162 z m 2.43466,5.58943 q 0.49722,0 0.96015,0.10287 l 0.0686,3.90917 q -0.25719,0.0514 -0.49722,0.10288 -0.25719,0.0343 -0.49723,0.0343 -0.36005,0 -0.78868,-0.0686 -0.42864,-0.0858 -0.80584,-0.30862 -0.3772,-0.24004 -0.61724,-0.63438 -0.25719,-0.39435 -0.25719,-1.04588 0,-0.65152 0.25719,-1.06302 0.24004,-0.41149 0.60009,-0.63438 0.36005,-0.24004 0.78869,-0.30862 0.42864,-0.0858 0.78869,-0.0858 z" /><path
       id="path10278"
       style="font-style:normal;font-variant:normal;font-weight:normal;font-stretch:normal;font-size:medium;line-height:1.25;font-family:'Luckiest Guy';-inkscape-font-specification:'Luckiest Guy';text-align:center;letter-spacing:0px;word-spacing:0px;text-anchor:middle;fill:#ffffff;fill-opacity:1;stroke:none;stroke-width:0.877849"
       d="m 142.71149,136.1381 q -0.10287,1.61168 -0.1886,3.18906 -0.0858,1.57739 -0.22289,3.18906 l -7.26969,0.3772 -0.17145,2.16034 h 5.10935 l -0.3772,5.3151 -5.14364,0.17145 -0.17146,2.50324 h 4.25208 3.0176 q -0.10286,1.886 -0.22288,3.75486 -0.10288,1.85171 -0.18861,3.72057 l -14.7794,0.34291 0.54866,-24.72379 z" /><path
       id="path10280"
       style="font-style:normal;font-variant:normal;font-weight:normal;font-stretch:normal;font-size:medium;line-height:1.25;font-family:'Luckiest Guy';-inkscape-font-specification:'Luckiest Guy';text-align:center;letter-spacing:0px;word-spacing:0px;text-anchor:middle;fill:#ffffff;fill-opacity:1;stroke:none;stroke-width:0.877849"
       d="m 166.59515,136.27527 -1.23448,23.24927 -8.98422,0.82298 -4.80074,-12.44761 -0.75441,12.68765 h -7.71546 l 0.61723,-24.31229 8.57275,-0.41149 5.93233,12.34474 0.27433,-11.65893 z" /></g><text
     xml:space="preserve"
     style="font-size:53.3333px;font-family:'Zilla Slab Highlight';-inkscape-font-specification:'Zilla Slab Highlight';text-align:center;text-anchor:middle;fill:#ffffff;stroke-width:1.54241;stroke-linecap:round;stroke-linejoin:round;stroke-opacity:0.5"
     x="72.131676"
     y="585.56091"
     id="text10"><tspan
       sodipodi:role="line"
       id="tspan10"
       x="72.131676"
       y="585.56091"
       style="font-style:normal;font-variant:normal;font-weight:bold;font-stretch:normal;font-size:53.3333px;font-family:Roboto;-inkscape-font-specification:'Roboto Bold';fill:#ffffff;stroke-width:1.54241">by</tspan></text></g></svg>
